<?xml version="1.0" encoding="UTF-8"?>
<svg
   width="308.7612359841165"
   height="304.915625"
   viewBox="0 0 2000 1500"
   preserveAspectRatio="xMidYMid meet"
   xmlns="http://www.w3.org/2000/svg"
   version="1.1">
    <!-- SVG Content -->

<path d="M0 0 C660 0 1320 0 2000 0 C2000 495 2000 990 2000 1500 C1340 1500 680 1500 0 1500 C0 1005 0 510 0 0 Z " fill="#000000" transform="translate(0,0)"/>
<path d="M0 0 C7.93193706 2.52147806 15.86749759 4.83791874 23.9375 6.875 C32.59917972 9.07737123 41.1396943 11.55600978 49.67626953 14.19921875 C59.83773106 17.33481439 70.07567079 20.17777305 80.32421875 23.01318359 C85.32249917 24.39680419 90.317847 25.79084854 95.3125 27.1875 C96.31780762 27.46851563 97.32311523 27.74953125 98.35888672 28.0390625 C107.5613477 30.61762586 116.74971526 33.244756 125.9375 35.875 C135.84742063 38.71194939 145.75913956 41.54057995 155.6875 44.3125 C156.62658203 44.57498535 157.56566406 44.8374707 158.53320312 45.10791016 C162.60815504 46.24673513 166.68313024 47.38547603 170.75854492 48.52264404 C176.08464813 50.00892345 181.40972468 51.49880841 186.73376465 52.99246216 C188.53103022 53.49602353 190.32863649 53.99837057 192.12658691 54.4994812 C194.64776228 55.20231548 197.16774584 55.90927767 199.6875 56.6171875 C200.45600281 56.83040146 201.22450562 57.04361542 202.01629639 57.26329041 C207.32353595 58.76103595 207.32353595 58.76103595 208.4375 59.875 C208.54490307 61.8530065 208.62281367 63.83263616 208.6875 65.8125 C209.27743367 74.33376413 211.97152488 81.12746656 218.4375 86.875 C218.4375 87.535 218.4375 88.195 218.4375 88.875 C219.02144531 89.13410156 219.60539062 89.39320313 220.20703125 89.66015625 C222.6030272 90.9651558 224.17494483 92.40991068 226.125 94.3125 C241.16258542 107.90038356 260.67909942 117.1887648 278.75 126 C280.16925781 126.69984009 280.16925781 126.69984009 281.6171875 127.41381836 C288.40741956 130.66935489 295.32482186 133.40979051 302.36791992 136.06591797 C303.33845055 136.43369858 304.30898117 136.80147919 305.30892181 137.18040466 C307.68446682 138.08033131 310.06066655 138.97848309 312.4375 139.875 C312.48332271 185.44749688 312.51854217 231.01999131 312.53963066 276.5925067 C312.54213194 281.97825646 312.5447206 287.36400617 312.54736328 292.74975586 C312.54815021 294.35799892 312.54815021 294.35799892 312.54895304 295.99873174 C312.55764498 313.33694468 312.57340826 330.6751443 312.59180559 348.01334935 C312.61053837 365.81677598 312.62162386 383.62019565 312.62567699 401.42363173 C312.62841504 412.40069717 312.63704894 423.37772494 312.65333293 434.35477877 C312.66394155 441.89205713 312.66709188 449.42931615 312.66450275 456.96660142 C312.66322748 461.30887963 312.66512001 465.65109221 312.67591095 469.99335861 C312.68574672 473.9807105 312.68606906 477.96795354 312.67929779 481.95531077 C312.6784627 483.38629238 312.6809116 484.81728119 312.68726636 486.24824893 C312.73054366 496.60875262 311.82562093 506.62996423 310.4375 516.875 C310.27215543 518.10507733 310.10681086 519.33515466 309.93645585 520.60250705 C300.71638084 588.05269278 274.2446101 649.14800963 232.4375 702.875 C231.73238281 703.7825 231.02726562 704.69 230.30078125 705.625 C219.60459914 719.16337249 208.28019821 732.2647338 195.94140625 744.3359375 C194.36515338 745.94903784 192.93602278 747.63645508 191.5 749.375 C188.78531692 752.60676558 185.77572187 755.27362993 182.5625 758 C180.30610697 759.99093503 178.22238457 762.09269016 176.125 764.25 C172.05100662 768.37999329 167.70511477 772.00996352 163.1796875 775.6328125 C160.57662048 777.76124621 158.09741367 779.97213692 155.625 782.25 C149.50248088 787.8132969 143.00203147 792.8494562 136.4375 797.875 C135.82132813 798.34808594 135.20515625 798.82117187 134.5703125 799.30859375 C118.07431589 811.93727166 101.04855101 823.85323326 83.4375 834.875 C81.97739502 835.79273193 81.97739502 835.79273193 80.48779297 836.72900391 C55.48342245 852.37812705 29.62175036 866.4669601 2.80273438 878.77197266 C0.59168711 879.80309482 -1.58769487 880.88152763 -3.765625 881.98046875 C-4.98911813 882.57127686 -6.21303692 883.16120478 -7.4375 883.75 C-8.91863281 884.48863281 -8.91863281 884.48863281 -10.4296875 885.2421875 C-18.65795998 886.9042575 -28.06889623 880.51470354 -35.3125 877.125 C-35.91520721 876.84355133 -36.51791443 876.56210266 -37.1388855 876.27212524 C-83.33048741 854.65750617 -126.20113195 828.03665422 -166.5625 796.875 C-167.23974121 796.35518555 -167.91698242 795.83537109 -168.61474609 795.29980469 C-181.6406547 785.29770685 -193.96331699 774.51614722 -205.98632812 763.33349609 C-207.67479779 761.77108627 -209.37591454 760.2232033 -211.078125 758.67578125 C-220.10785771 750.41978719 -228.57383188 741.73359747 -236.85595703 732.72998047 C-238.2917916 731.169255 -239.73665954 729.61684693 -241.18359375 728.06640625 C-246.82859581 721.93840936 -251.94346578 715.42837393 -257.03076172 708.83935547 C-258.61699992 706.80510738 -260.22935422 704.79396879 -261.84765625 702.78515625 C-295.19174592 661.13234425 -321.35740654 610.24096761 -332.5625 557.875 C-332.75408691 557.00907227 -332.94567383 556.14314453 -333.14306641 555.25097656 C-339.91233958 524.25899632 -342.18974084 493.24434237 -342.02676249 461.59933329 C-342.00904685 457.25637104 -342.01536437 452.91342291 -342.01837158 448.57043457 C-342.02044189 441.09322007 -342.00818124 433.61614808 -341.98542023 426.13896942 C-341.95253596 415.32902186 -341.94245659 404.51914129 -341.93746826 393.70914915 C-341.92877177 376.15925075 -341.90231186 358.60942786 -341.86425781 341.05957031 C-341.82738987 324.03874075 -341.79915106 307.01793189 -341.78222656 289.99707031 C-341.78117567 288.94315793 -341.78012477 287.88924555 -341.77904204 286.80339643 C-341.77382087 281.51481003 -341.76876628 276.22622349 -341.76379442 270.93763685 C-341.72250877 227.25003902 -341.65221714 183.56252346 -341.5625 139.875 C-340.74226349 139.53799576 -339.92202698 139.20099152 -339.07693481 138.85377502 C-335.97843091 137.57954805 -332.88071337 136.30344346 -329.78347778 135.02613831 C-328.45325341 134.47798214 -327.12273658 133.93053505 -325.79190063 133.38386536 C-274.46541421 113.11301744 -274.46541421 113.11301744 -238.5625 73.875 C-237.99334828 70.2241481 -237.99334828 70.2241481 -237.875 66.5 C-237.80925781 65.25476563 -237.74351562 64.00953125 -237.67578125 62.7265625 C-237.63839844 61.78554688 -237.60101562 60.84453125 -237.5625 59.875 C-231.92734844 57.68620242 -226.28948425 55.84151198 -220.47265625 54.203125 C-219.61978027 53.96006622 -218.7669043 53.71700745 -217.88818359 53.46658325 C-215.13470088 52.68280506 -212.37988889 51.90381972 -209.625 51.125 C-207.70818208 50.5804868 -205.79143445 50.0357261 -203.87475586 49.49072266 C-193.18431595 46.45374917 -182.48743596 43.43989802 -171.78149414 40.45800781 C-162.09811516 37.75718481 -152.43502684 34.98614819 -142.77053833 32.21868896 C-132.56737474 29.29756855 -122.3564005 26.40756694 -112.1328125 23.55859375 C-102.33720964 20.82345789 -92.56064254 18.02261936 -82.78353882 15.22225952 C-72.33223547 12.2292795 -61.87419127 9.26347089 -51.39672852 6.36303711 C-46.23825829 4.92896094 -41.10026772 3.44472039 -35.9765625 1.890625 C-34.89141357 1.56408936 -33.80626465 1.23755371 -32.68823242 0.90112305 C-30.63081085 0.27928041 -28.57603943 -0.35143195 -26.5246582 -0.99291992 C-16.64187907 -3.97175047 -9.76394891 -3.22344067 0 0 Z " fill="#FEFEFE" transform="translate(1014.5625,309.125)"/>
<path d="M0 0 C3.78518732 1.4160506 7.19749321 3.15421065 10.69921875 5.16796875 C11.81248535 5.80613525 12.92575195 6.44430176 14.07275391 7.10180664 C15.27771682 7.79695534 16.4826309 8.4921887 17.6875 9.1875 C18.94434799 9.90968618 20.20134912 10.6316059 21.45849609 11.35327148 C24.68637148 13.20743067 27.91189349 15.06563953 31.13653564 16.92541504 C33.99525204 18.57392183 36.85518454 20.22031688 39.71484375 21.8671875 C45.07278109 24.95479176 50.42792501 28.04720933 55.78222656 31.14111328 C61.18670645 34.26324605 66.59347412 37.38141204 72 40.5 C74.1666775 41.74998122 76.33334417 42.99998121 78.5 44.25 C79.5725 44.86875 80.645 45.4875 81.75 46.125 C85 48 88.25 49.875 91.5 51.75 C92.57306396 52.36907227 93.64612793 52.98814453 94.75170898 53.62597656 C96.91268988 54.87270256 99.07365998 56.11944727 101.23461914 57.36621094 C106.73818851 60.54145883 112.24196032 63.71635495 117.74609375 66.890625 C119.42735352 67.86032227 119.42735352 67.86032227 121.14257812 68.84960938 C123.23104731 70.05416214 125.31958107 71.25860296 127.40820312 72.46289062 C129.38146251 73.60105935 131.33305575 74.77765337 133.26066589 75.99153137 C136.0210842 77.61560095 138.63486824 78.51399241 141.71736145 79.36271667 C147.6761961 81.33446019 152.35841893 83.74331233 156 89 C159.62578925 100.87573322 158.66140715 114.05340415 158.48632145 126.33518338 C158.43050891 131.34745455 158.46956815 136.35916507 158.49383545 141.37156677 C158.51920513 149.7863324 158.46612738 158.1978993 158.3671875 166.61206055 C158.25405739 176.32370594 158.27001578 186.02874182 158.35405469 195.74053341 C158.43170022 205.10603051 158.413143 214.46906483 158.35274506 223.83460808 C158.32904751 227.81003275 158.33952491 231.78316152 158.37815094 235.75845528 C158.41966977 240.44582143 158.37683427 245.12522115 158.27040482 249.81148911 C158.24486018 251.52448561 158.24779712 253.23819495 158.28219986 254.95103645 C158.47204949 265.4804327 158.47204949 265.4804327 156 270 C151.77949405 274.18104247 146.44405919 276.64830657 141.07703924 279.04458416 C138.1086736 280.41000061 135.36692109 282.04926066 132.56640625 283.73046875 C130.56552298 284.88353956 128.56421553 286.03587459 126.5625 287.1875 C125.46760254 287.81841553 124.37270508 288.44933105 123.24462891 289.09936523 C119.83013293 291.06690457 116.41511211 293.03353034 113 295 C108.62449212 297.51995294 104.24943866 300.04069141 99.875 302.5625 C98.25742798 303.49497559 98.25742798 303.49497559 96.60717773 304.44628906 C89.43241198 308.58622005 82.27496657 312.7549179 75.125 316.9375 C65.86073029 322.35586162 56.55375681 327.69650724 47.22866821 333.00915527 C37.74993707 338.41039762 28.30952177 343.8746938 18.90039062 349.39648438 C17.1100823 350.44580045 15.31615313 351.48897173 13.51806641 352.52490234 C11.83937991 353.50828647 10.1795757 354.52463503 8.54052734 355.57275391 C7.76789551 356.05019043 6.99526367 356.52762695 6.19921875 357.01953125 C5.53108154 357.44983643 4.86294434 357.8801416 4.17456055 358.32348633 C0.15937521 359.57262505 -3.09036695 357.46794749 -6.65527344 355.6340332 C-7.54762695 355.11156006 -8.43998047 354.58908691 -9.359375 354.05078125 C-10.37918457 353.45773193 -11.39899414 352.86468262 -12.44970703 352.25366211 C-13.53880371 351.61307861 -14.62790039 350.97249512 -15.75 350.3125 C-16.9057488 349.63817285 -18.06184266 348.96443682 -19.21826172 348.29125977 C-21.61980548 346.89270204 -24.01984804 345.49161706 -26.41894531 344.08886719 C-31.9723187 340.84524089 -37.5506203 337.64483323 -43.125 334.4375 C-52.42309566 329.07765885 -61.69937223 323.68141718 -70.96582031 318.26708984 C-81.51883187 312.10511341 -92.1066104 306.00382161 -102.69580078 299.90429688 C-106.02614252 297.98493338 -109.35509148 296.06317647 -112.68359375 294.140625 C-123.11218763 288.11754252 -133.54560449 282.10321368 -144 276.125 C-144.88469971 275.61880127 -145.76939941 275.11260254 -146.6809082 274.59106445 C-147.4874585 274.13046631 -148.29400879 273.66986816 -149.125 273.1953125 C-149.82882812 272.79328613 -150.53265625 272.39125977 -151.2578125 271.97705078 C-152.48829684 271.28697254 -153.73816018 270.63091991 -155 270 C-155.63223892 246.80906425 -156.10755202 223.61955826 -156.39892864 200.42173767 C-156.53785675 189.64866208 -156.72700986 178.88095513 -157.03686523 168.11132812 C-157.30699371 158.71796449 -157.48038855 149.3284874 -157.54038936 139.93134785 C-157.57545141 134.95831497 -157.65699513 129.99639245 -157.85471153 125.02694702 C-158.9809444 95.58944666 -158.9809444 95.58944666 -153.81015062 88.32939148 C-147.78450233 81.82582148 -139.57747714 78.45655887 -131.43114662 75.37466431 C-126.08547402 73.23295888 -121.25190687 70.31004448 -116.3125 67.375 C-114.43228457 66.31309675 -112.54977109 65.25524271 -110.6640625 64.203125 C-103.79390694 60.33375439 -96.99107581 56.35120417 -90.1862793 52.3684082 C-79.57624194 46.15988856 -68.92565517 40.02249734 -58.2734375 33.88671875 C-55.0352484 32.0203162 -51.79860562 30.15126237 -48.5625 28.28125 C-39.44438143 23.01354118 -30.32456468 17.74946371 -21.17578125 12.53515625 C-20.20279083 11.98037346 -20.20279083 11.98037346 -19.21014404 11.41438293 C-16.04845368 9.61193992 -12.88569543 7.81141459 -9.72119141 6.01391602 C-8.59503418 5.37252686 -7.46887695 4.7311377 -6.30859375 4.0703125 C-4.80510376 3.21590576 -4.80510376 3.21590576 -3.27124023 2.34423828 C-1.10819715 1.19098526 -1.10819715 1.19098526 0 0 Z " fill="#020202" transform="translate(997,736)"/>
<path d="M0 0 C8.15054855 2.46048324 16.31146675 4.77561638 24.5625 6.875 C32.52171667 8.90944883 40.38750931 11.14532904 48.23950195 13.55834961 C54.70075125 15.52509651 61.20832749 17.25945563 67.75 18.9375 C74.61167315 20.69797986 81.40220118 22.54966182 88.15625 24.69140625 C102.64397564 29.13368964 117.31711557 32.97695944 131.98974609 36.75341797 C137.81098649 38.26112834 143.54757913 39.93093103 149.27734375 41.7578125 C154.11012396 43.19963643 158.99002039 44.43592353 163.875 45.6875 C171.23977372 47.57639274 178.54481319 49.57882291 185.8125 51.8125 C194.07538855 54.35152553 202.39584395 56.59168658 210.7734375 58.72070312 C216.83663581 60.26681869 222.83367312 61.96645432 228.8125 63.8125 C228.83828125 65.09125 228.8640625 66.37 228.890625 67.6875 C228.94694475 69.39586565 229.00429118 71.10419767 229.0625 72.8125 C229.07667969 73.65167969 229.09085938 74.49085938 229.10546875 75.35546875 C229.45605524 84.40060015 232.70447261 90.45005746 239.234375 96.6171875 C259.36829419 113.76152475 283.47871761 125.93932296 307.5 136.625 C308.43505371 137.04442871 309.37010742 137.46385742 310.33349609 137.89599609 C316.86370439 140.74107066 323.49808853 143.14670566 330.22583008 145.47924805 C331.14989906 145.80107811 332.07396805 146.12290817 333.02603912 146.45449066 C335.28769489 147.2419381 337.54985416 148.02790294 339.8125 148.8125 C339.88131418 197.76478588 339.93410371 246.71706683 339.96569599 295.66939165 C339.96944767 301.46156066 339.97333068 307.25372957 339.97729492 313.04589844 C339.97808185 314.19891228 339.97886878 315.35192612 339.97967956 316.53987977 C339.99269855 335.15750807 340.01633287 353.77510831 340.04395839 372.39272001 C340.07211055 391.52622344 340.0886969 410.65971226 340.09476548 429.79323554 C340.09886167 441.57948163 340.11175234 453.36564835 340.1362494 465.15186998 C340.15222801 473.25736875 340.15687325 481.36282709 340.15300413 489.46834043 C340.15110124 494.12997684 340.1538117 498.79147555 340.17011642 503.45308685 C340.25132512 527.89099199 339.985784 552.26291444 334.60546875 576.2421875 C334.02058797 578.87559161 333.50800131 581.4775751 333.05078125 584.1328125 C321.93013972 647.14324345 289.53671694 706.43986702 249.8125 755.8125 C249.04292969 756.77671875 248.27335937 757.7409375 247.48046875 758.734375 C242.96058415 764.33871527 238.25266698 769.72322834 233.3671875 775.01171875 C231.40819147 777.15942541 229.4993254 779.3294167 227.60180664 781.53027344 C224.08812092 785.54985467 220.4091782 789.36103925 216.62890625 793.12890625 C215.96970688 793.78906235 215.31050751 794.44921844 214.6313324 795.12937927 C213.24853165 796.51285506 211.86448924 797.89509083 210.47924805 799.27612305 C208.38019657 801.36981669 206.2865406 803.46879874 204.19335938 805.56835938 C202.83886214 806.92219571 201.48405469 808.27572175 200.12890625 809.62890625 C199.51406876 810.24576797 198.89923126 810.8626297 198.26576233 811.4981842 C193.94200156 815.79913252 189.43318135 819.83429786 184.8125 823.8125 C183.62123392 824.85805264 182.43095452 825.90473186 181.2421875 826.953125 C173.6219088 833.63387366 165.87677473 840.08378092 157.83837891 846.25488281 C155.57769542 847.99303184 153.32639805 849.7430353 151.07421875 851.4921875 C132.34836824 865.96752745 113.00992527 879.46986224 92.8125 891.8125 C92.01279785 892.30169922 91.2130957 892.79089844 90.38916016 893.29492188 C84.55890772 896.84970017 78.69434976 900.3438931 72.8125 903.8125 C72.02278809 904.28091309 71.23307617 904.74932617 70.41943359 905.23193359 C46.64622489 919.28484534 21.94687118 932.15081206 -3.57763672 942.72119141 C-5.34654681 943.46085727 -7.10341937 944.22986609 -8.84814453 945.02490234 C-15.25323678 947.84815991 -19.06637243 948.3921367 -25.79003906 945.81494141 C-28.99643659 944.482899 -32.1540948 943.06712339 -35.3125 941.625 C-36.49030029 941.09326172 -37.66810059 940.56152344 -38.8815918 940.01367188 C-60.05899402 930.41507965 -80.98270267 920.33905626 -101.1875 908.8125 C-102.66476562 907.9757373 -102.66476562 907.9757373 -104.171875 907.12207031 C-131.55943915 891.5273298 -158.25005884 874.09574499 -183.1875 854.8125 C-184.1470459 854.07386719 -184.1470459 854.07386719 -185.12597656 853.3203125 C-189.17948675 850.19172271 -193.19637262 847.02020276 -197.1875 843.8125 C-198.115625 843.06742188 -199.04375 842.32234375 -200 841.5546875 C-211.55023996 832.18690567 -222.70862448 822.46016644 -233.5234375 812.25390625 C-235.8608705 810.04879239 -238.2163534 807.86817675 -240.6015625 805.71484375 C-247.68697119 799.30977687 -254.24871701 792.60209712 -260.64306641 785.50976562 C-262.2488728 783.74505395 -263.87639866 782.00300426 -265.51171875 780.265625 C-272.03661855 773.33285981 -278.29178497 766.2962544 -284.1875 758.8125 C-284.68830078 758.18424316 -285.18910156 757.55598633 -285.70507812 756.90869141 C-306.60698533 730.67025831 -324.19765123 702.83236943 -339.1875 672.8125 C-339.56455078 672.06629395 -339.94160156 671.32008789 -340.33007812 670.55126953 C-353.43835344 644.47352661 -363.47534618 615.4259157 -369.1875 586.8125 C-369.35056641 586.03970703 -369.51363281 585.26691406 -369.68164062 584.47070312 C-375.71527932 555.7035793 -376.63925033 526.93197852 -376.53569686 497.66541469 C-376.5224932 492.96312228 -376.52714275 488.2608385 -376.52940369 483.55853271 C-376.53096138 475.45047044 -376.52171187 467.34248172 -376.50469017 459.23443794 C-376.48009729 447.51221032 -376.4724744 435.79001752 -376.4687262 424.0677669 C-376.46219314 405.03986816 -376.44231835 386.01200846 -376.41381836 366.98413086 C-376.38619566 348.52254427 -376.36500251 330.06096837 -376.35229492 311.59936523 C-376.35150675 310.45751637 -376.35071858 309.3156675 -376.34990653 308.13921715 C-376.34599084 302.40973945 -376.34219985 296.68026167 -376.33847082 290.95078385 C-376.30747311 243.57132896 -376.25472422 196.1919164 -376.1875 148.8125 C-375.23805511 148.45567642 -374.28861023 148.09885284 -373.31039429 147.73121643 C-369.7067059 146.37515493 -366.10585082 145.01169579 -362.50570679 143.64625549 C-360.96245597 143.06205465 -359.4184948 142.47972603 -357.87374878 141.89949036 C-330.29966676 131.53718064 -302.94756207 118.78990387 -280.1875 99.8125 C-279.31351563 99.090625 -278.43953125 98.36875 -277.5390625 97.625 C-272.1291662 93.00295267 -266.722584 88.24541591 -265.98217773 80.7277832 C-265.94552002 79.94749756 -265.9088623 79.16721191 -265.87109375 78.36328125 C-265.82919922 77.51572266 -265.78730469 76.66816406 -265.74414062 75.79492188 C-265.70482422 74.91384766 -265.66550781 74.03277344 -265.625 73.125 C-265.56022461 71.78598633 -265.56022461 71.78598633 -265.49414062 70.41992188 C-265.38814647 68.21759892 -265.28607949 66.01516527 -265.1875 63.8125 C-263.65755208 63.38411458 -262.12760417 62.95572917 -260.59765625 62.52734375 C-259.59847168 62.24753662 -258.59928711 61.96772949 -257.56982422 61.67944336 C-255.32543216 61.05108621 -253.08096396 60.423001 -250.83642578 59.79516602 C-245.1456921 58.20297895 -239.45600665 56.60733475 -233.76953125 55 C-223.66231541 52.14798738 -213.54711862 49.36199172 -203.375 46.75 C-195.43858556 44.71165277 -187.59216573 42.47325778 -179.76025391 40.06665039 C-173.29913318 38.09974678 -166.79159455 36.36552437 -160.25 34.6875 C-153.38832685 32.92702014 -146.59779882 31.07533818 -139.84375 28.93359375 C-126.32064818 24.7870871 -112.63269657 21.15402496 -98.9375 17.625 C-92.18158489 15.88369776 -85.49554105 14.0429117 -78.84375 11.93359375 C-64.23109663 7.45300452 -49.43119511 3.54406489 -34.62353516 -0.23388672 C-33.73327637 -0.46221191 -32.84301758 -0.69053711 -31.92578125 -0.92578125 C-31.09127441 -1.13799316 -30.25676758 -1.35020508 -29.39697266 -1.56884766 C-27.0183241 -2.18971608 -27.0183241 -2.18971608 -24.16796875 -3.41796875 C-16.08241347 -5.50558918 -7.71919464 -2.40088716 0 0 Z M-35.375 31.4375 C-37.91405265 32.18362727 -40.45311521 32.92972083 -42.9921875 33.67578125 C-44.8498877 34.22806396 -44.8498877 34.22806396 -46.74511719 34.79150391 C-51.15502134 36.09946271 -55.57557558 37.36723443 -60 38.625 C-60.79172607 38.8513916 -61.58345215 39.0777832 -62.39916992 39.31103516 C-72.69364099 42.25231261 -83.00140132 45.14685811 -93.30654907 48.05044556 C-107.00321359 51.90966538 -107.00321359 51.90966538 -120.6875 55.8125 C-132.29484919 59.14313113 -143.92082755 62.40808739 -155.54492188 65.6796875 C-164.67112178 68.24937211 -173.79180739 70.83747153 -182.90692139 73.44621277 C-188.82129451 75.1383262 -194.73812841 76.82156931 -200.65649414 78.49966431 C-204.98883265 79.72838839 -209.32037753 80.95989652 -213.65185547 82.19165039 C-215.87777207 82.82396419 -218.10401965 83.45511381 -220.33056641 84.08520508 C-223.59104408 85.00818195 -226.85031854 85.93530047 -230.109375 86.86328125 C-231.11015076 87.14553055 -232.11092651 87.42777985 -233.14202881 87.71858215 C-234.0551886 87.979431 -234.96834839 88.24027985 -235.90917969 88.5090332 C-236.71409851 88.73742386 -237.51901733 88.96581451 -238.34832764 89.2011261 C-240.18275779 89.65844095 -240.18275779 89.65844095 -241.1875 90.8125 C-241.26805806 92.9577313 -241.32648536 95.10380493 -241.375 97.25 C-242.21045923 109.21280752 -248.7098434 116.57028604 -257.46972656 124.36523438 C-267.45430382 132.77748196 -278.61423785 139.57725285 -290.10986328 145.69726562 C-292.24227188 146.84190047 -294.35354063 148.02007133 -296.46484375 149.203125 C-308.94384577 156.09339657 -321.95487291 161.42467401 -335.21582031 166.62084961 C-337.4495266 167.51657097 -339.66301373 168.43632792 -341.87322998 169.38697815 C-343.51379364 170.09261147 -343.51379364 170.09261147 -345.1875 170.8125 C-345.27937747 215.55199016 -345.34970116 260.29147019 -345.39176132 305.03103636 C-345.39676318 310.3322145 -345.40194057 315.63339245 -345.40722656 320.93457031 C-345.4082758 321.989786 -345.40932505 323.04500168 -345.41040608 324.1321936 C-345.42773531 341.14073306 -345.45923096 358.14921756 -345.49611118 375.15772459 C-345.53373026 392.65500701 -345.55577975 410.15226096 -345.56385398 427.64958215 C-345.56929867 438.41628394 -345.58639148 449.18283029 -345.61916587 459.94948414 C-345.64057378 467.36730476 -345.64664185 474.78504693 -345.64150551 482.20289609 C-345.63898377 486.46052219 -345.6423945 490.71787991 -345.6643219 494.97545624 C-346.12214203 588.69794082 -315.35497324 673.88444404 -253.1875 748.8125 C-252.71957031 749.37066406 -252.25164062 749.92882813 -251.76953125 750.50390625 C-246.38589705 756.91167652 -240.99197151 763.19759551 -234.9765625 769.02734375 C-233.13589734 770.86398999 -231.44194904 772.77605946 -229.75 774.75 C-224.14899215 781.24207728 -218.04682213 787.16781172 -211.5390625 792.7421875 C-209.04344032 794.93932995 -206.61987912 797.20139791 -204.1965332 799.47753906 C-197.73419938 805.54404303 -191.11225762 811.27453071 -184.1875 816.8125 C-182.99591891 817.79378222 -181.80591404 818.77698045 -180.6171875 819.76171875 C-170.42541692 828.18005418 -159.91667174 836.09348672 -149.1875 843.8125 C-148.39359863 844.38613281 -147.59969727 844.95976563 -146.78173828 845.55078125 C-127.37163602 859.5295259 -107.05417571 872.12946368 -86.1875 883.8125 C-84.87555664 884.54968262 -84.87555664 884.54968262 -83.53710938 885.30175781 C-71.19548038 892.203155 -58.66020397 898.64916527 -45.9375 904.8125 C-45.28809448 905.1278772 -44.63868896 905.44325439 -43.96960449 905.76818848 C-40.87765712 907.26619077 -37.77921013 908.74641155 -34.66210938 910.19140625 C-32.39705394 911.24817748 -30.1470431 912.33800838 -27.91601562 913.46484375 C-21.51617836 916.60001013 -21.51617836 916.60001013 -14.671875 915.953125 C-13.16000824 915.27651378 -11.66572892 914.55975035 -10.1875 913.8125 C-8.33888849 913.01482075 -6.4899041 912.21800532 -4.640625 911.421875 C-2.56951105 910.47617313 -0.50197691 909.52260422 1.5625 908.5625 C2.68793213 908.03946289 3.81336426 907.51642578 4.97290039 906.97753906 C27.98766723 896.17278173 50.14454636 884.11042065 71.8125 870.8125 C73.17785889 869.97477051 73.17785889 869.97477051 74.57080078 869.12011719 C96.88156777 855.3625822 118.40064122 840.25951181 138.8125 823.8125 C139.74191406 823.06613281 140.67132812 822.31976562 141.62890625 821.55078125 C155.33537225 810.43796966 168.88726728 798.97172689 181.23828125 786.3515625 C182.86337317 784.76276295 184.560303 783.32162622 186.3125 781.875 C189.5405386 779.16344758 192.20458109 776.15702339 194.9296875 772.94921875 C196.96889232 770.63501743 199.11493458 768.47654323 201.3125 766.3125 C205.36076069 762.30513083 209.12488916 758.1508657 212.8125 753.8125 C213.62332031 752.87921875 214.43414063 751.9459375 215.26953125 750.984375 C222.54212783 742.56835505 229.26408725 733.8002701 235.8125 724.8125 C236.31426758 724.12639648 236.81603516 723.44029297 237.33300781 722.73339844 C245.07814523 712.09939947 252.16947097 701.16640269 258.8125 689.8125 C259.22177734 689.11640625 259.63105469 688.4203125 260.05273438 687.703125 C273.61743741 664.46183027 284.17498983 640.23893687 292.8125 614.8125 C293.12799805 613.89984375 293.44349609 612.9871875 293.76855469 612.046875 C301.85853924 588.36342195 305.36677151 563.30060581 307.51879883 538.45849609 C307.8125 535.8125 307.8125 535.8125 308.32316583 533.53696853 C308.86953508 530.49494545 308.936623 527.66613672 308.93554783 524.57500744 C308.93753888 523.31102979 308.93952993 522.04705214 308.94158131 520.74477214 C308.93872844 519.34459298 308.93578284 517.94441401 308.93275452 516.54423523 C308.93319059 515.05499164 308.93406616 513.56574812 308.93534368 512.07650501 C308.93758156 507.98322538 308.93357699 503.88997188 308.92856562 499.79669559 C308.9242512 495.38297264 308.92570825 490.9692512 308.9264679 486.55552673 C308.9269925 478.9081201 308.92385231 471.26072198 308.91823006 463.61331749 C308.91010648 452.55642464 308.90749895 441.49953591 308.90624207 430.4426404 C308.9040529 412.50399426 308.89739647 394.56535266 308.88793945 376.62670898 C308.87876185 359.1999514 308.87168271 341.77319506 308.86743164 324.34643555 C308.86716892 323.27243076 308.86690619 322.19842597 308.86663551 321.09187558 C308.86533048 315.7039631 308.86406677 310.31605062 308.86282361 304.92813814 C308.8524552 260.22292228 308.83484055 215.51771137 308.8125 170.8125 C308.09310179 170.52640586 307.37370358 170.24031172 306.63250542 169.94554806 C303.34279462 168.63631299 300.05396064 167.32488895 296.76513672 166.01342773 C295.06758492 165.33840336 295.06758492 165.33840336 293.33573914 164.64974213 C285.74535524 161.62063 278.27651763 158.47650071 270.9375 154.875 C269.40355591 154.12887451 269.40355591 154.12887451 267.83862305 153.36767578 C250.17054938 144.65967221 232.83805312 134.86312007 218.484375 121.2109375 C216.92009032 119.59863548 216.92009032 119.59863548 214.8125 119.8125 C214.565 119.255625 214.3175 118.69875 214.0625 118.125 C212.85477284 115.70599954 212.85477284 115.70599954 210.875 113.5 C205.42402318 106.39721202 205.19339287 99.54676759 204.8125 90.8125 C198.1960899 88.54576691 191.52984287 86.50774097 184.8125 84.5625 C183.77504639 84.26093994 182.73759277 83.95937988 181.66870117 83.64868164 C173.11371376 81.1705302 164.54058168 78.75934267 155.9609375 76.36816406 C149.40428302 74.54073196 142.85505639 72.68975516 136.3125 70.8125 C128.65408713 68.61588958 120.98607263 66.45553825 113.3125 64.3125 C105.9312062 62.25068609 98.55419348 60.17589567 91.1875 58.0625 C80.90510827 55.11290365 70.60875709 52.21322432 60.3125 49.3125 C49.39896924 46.23778812 38.48607395 43.16186199 27.58862305 40.03051758 C22.23663459 38.49590718 16.87747843 36.98797018 11.515625 35.48828125 C10.78447983 35.28356201 10.05333466 35.07884277 9.30003357 34.86791992 C5.63241542 33.84099589 1.96427941 32.81600256 -1.70483398 31.79443359 C-3.04673809 31.41903772 -4.38861751 31.04355356 -5.73046875 30.66796875 C-6.92696045 30.33434326 -8.12345215 30.00071777 -9.35620117 29.65698242 C-12.1875 28.8125 -12.1875 28.8125 -14.1875 27.8125 C-21.72285243 27.15259931 -28.20648963 29.27387081 -35.375 31.4375 Z " fill="#040404" transform="translate(1018.1875,278.1875)"/>
<path d="M0 0 C8.15054855 2.46048324 16.31146675 4.77561638 24.5625 6.875 C32.52171667 8.90944883 40.38750931 11.14532904 48.23950195 13.55834961 C54.70075125 15.52509651 61.20832749 17.25945563 67.75 18.9375 C74.61167315 20.69797986 81.40220118 22.54966182 88.15625 24.69140625 C102.64397564 29.13368964 117.31711557 32.97695944 131.98974609 36.75341797 C137.81098649 38.26112834 143.54757913 39.93093103 149.27734375 41.7578125 C154.11012396 43.19963643 158.99002039 44.43592353 163.875 45.6875 C171.23977372 47.57639274 178.54481319 49.57882291 185.8125 51.8125 C194.07538855 54.35152553 202.39584395 56.59168658 210.7734375 58.72070312 C216.83663581 60.26681869 222.83367312 61.96645432 228.8125 63.8125 C228.83828125 65.09125 228.8640625 66.37 228.890625 67.6875 C228.94694475 69.39586565 229.00429118 71.10419767 229.0625 72.8125 C229.07667969 73.65167969 229.09085938 74.49085938 229.10546875 75.35546875 C229.45605524 84.40060015 232.70447261 90.45005746 239.234375 96.6171875 C259.36829419 113.76152475 283.47871761 125.93932296 307.5 136.625 C308.43505371 137.04442871 309.37010742 137.46385742 310.33349609 137.89599609 C316.86370439 140.74107066 323.49808853 143.14670566 330.22583008 145.47924805 C331.14989906 145.80107811 332.07396805 146.12290817 333.02603912 146.45449066 C335.28769489 147.2419381 337.54985416 148.02790294 339.8125 148.8125 C339.88131418 197.76478588 339.93410371 246.71706683 339.96569599 295.66939165 C339.96944767 301.46156066 339.97333068 307.25372957 339.97729492 313.04589844 C339.97808185 314.19891228 339.97886878 315.35192612 339.97967956 316.53987977 C339.99269855 335.15750807 340.01633287 353.77510831 340.04395839 372.39272001 C340.07211055 391.52622344 340.0886969 410.65971226 340.09476548 429.79323554 C340.09886167 441.57948163 340.11175234 453.36564835 340.1362494 465.15186998 C340.15222801 473.25736875 340.15687325 481.36282709 340.15300413 489.46834043 C340.15110124 494.12997684 340.1538117 498.79147555 340.17011642 503.45308685 C340.25132512 527.89099199 339.985784 552.26291444 334.60546875 576.2421875 C334.02058797 578.87559161 333.50800131 581.4775751 333.05078125 584.1328125 C321.93013972 647.14324345 289.53671694 706.43986702 249.8125 755.8125 C249.04292969 756.77671875 248.27335937 757.7409375 247.48046875 758.734375 C242.96058415 764.33871527 238.25266698 769.72322834 233.3671875 775.01171875 C231.40819147 777.15942541 229.4993254 779.3294167 227.60180664 781.53027344 C224.08812092 785.54985467 220.4091782 789.36103925 216.62890625 793.12890625 C215.96970688 793.78906235 215.31050751 794.44921844 214.6313324 795.12937927 C213.24853165 796.51285506 211.86448924 797.89509083 210.47924805 799.27612305 C208.38019657 801.36981669 206.2865406 803.46879874 204.19335938 805.56835938 C202.83886214 806.92219571 201.48405469 808.27572175 200.12890625 809.62890625 C199.51406876 810.24576797 198.89923126 810.8626297 198.26576233 811.4981842 C193.94200156 815.79913252 189.43318135 819.83429786 184.8125 823.8125 C183.62123392 824.85805264 182.43095452 825.90473186 181.2421875 826.953125 C173.6219088 833.63387366 165.87677473 840.08378092 157.83837891 846.25488281 C155.57769542 847.99303184 153.32639805 849.7430353 151.07421875 851.4921875 C132.34836824 865.96752745 113.00992527 879.46986224 92.8125 891.8125 C92.01279785 892.30169922 91.2130957 892.79089844 90.38916016 893.29492188 C84.55890772 896.84970017 78.69434976 900.3438931 72.8125 903.8125 C72.02278809 904.28091309 71.23307617 904.74932617 70.41943359 905.23193359 C46.64622489 919.28484534 21.94687118 932.15081206 -3.57763672 942.72119141 C-5.34654681 943.46085727 -7.10341937 944.22986609 -8.84814453 945.02490234 C-15.25323678 947.84815991 -19.06637243 948.3921367 -25.79003906 945.81494141 C-28.99643659 944.482899 -32.1540948 943.06712339 -35.3125 941.625 C-36.49030029 941.09326172 -37.66810059 940.56152344 -38.8815918 940.01367188 C-60.05899402 930.41507965 -80.98270267 920.33905626 -101.1875 908.8125 C-102.66476562 907.9757373 -102.66476562 907.9757373 -104.171875 907.12207031 C-131.55943915 891.5273298 -158.25005884 874.09574499 -183.1875 854.8125 C-184.1470459 854.07386719 -184.1470459 854.07386719 -185.12597656 853.3203125 C-189.17948675 850.19172271 -193.19637262 847.02020276 -197.1875 843.8125 C-198.115625 843.06742188 -199.04375 842.32234375 -200 841.5546875 C-211.55023996 832.18690567 -222.70862448 822.46016644 -233.5234375 812.25390625 C-235.8608705 810.04879239 -238.2163534 807.86817675 -240.6015625 805.71484375 C-247.68697119 799.30977687 -254.24871701 792.60209712 -260.64306641 785.50976562 C-262.2488728 783.74505395 -263.87639866 782.00300426 -265.51171875 780.265625 C-272.03661855 773.33285981 -278.29178497 766.2962544 -284.1875 758.8125 C-284.68830078 758.18424316 -285.18910156 757.55598633 -285.70507812 756.90869141 C-306.60698533 730.67025831 -324.19765123 702.83236943 -339.1875 672.8125 C-339.56455078 672.06629395 -339.94160156 671.32008789 -340.33007812 670.55126953 C-353.43835344 644.47352661 -363.47534618 615.4259157 -369.1875 586.8125 C-369.35056641 586.03970703 -369.51363281 585.26691406 -369.68164062 584.47070312 C-375.71527932 555.7035793 -376.63925033 526.93197852 -376.53569686 497.66541469 C-376.5224932 492.96312228 -376.52714275 488.2608385 -376.52940369 483.55853271 C-376.53096138 475.45047044 -376.52171187 467.34248172 -376.50469017 459.23443794 C-376.48009729 447.51221032 -376.4724744 435.79001752 -376.4687262 424.0677669 C-376.46219314 405.03986816 -376.44231835 386.01200846 -376.41381836 366.98413086 C-376.38619566 348.52254427 -376.36500251 330.06096837 -376.35229492 311.59936523 C-376.35150675 310.45751637 -376.35071858 309.3156675 -376.34990653 308.13921715 C-376.34599084 302.40973945 -376.34219985 296.68026167 -376.33847082 290.95078385 C-376.30747311 243.57132896 -376.25472422 196.1919164 -376.1875 148.8125 C-375.23805511 148.45567642 -374.28861023 148.09885284 -373.31039429 147.73121643 C-369.7067059 146.37515493 -366.10585082 145.01169579 -362.50570679 143.64625549 C-360.96245597 143.06205465 -359.4184948 142.47972603 -357.87374878 141.89949036 C-330.29966676 131.53718064 -302.94756207 118.78990387 -280.1875 99.8125 C-279.31351563 99.090625 -278.43953125 98.36875 -277.5390625 97.625 C-272.1291662 93.00295267 -266.722584 88.24541591 -265.98217773 80.7277832 C-265.94552002 79.94749756 -265.9088623 79.16721191 -265.87109375 78.36328125 C-265.82919922 77.51572266 -265.78730469 76.66816406 -265.74414062 75.79492188 C-265.70482422 74.91384766 -265.66550781 74.03277344 -265.625 73.125 C-265.56022461 71.78598633 -265.56022461 71.78598633 -265.49414062 70.41992188 C-265.38814647 68.21759892 -265.28607949 66.01516527 -265.1875 63.8125 C-263.65755208 63.38411458 -262.12760417 62.95572917 -260.59765625 62.52734375 C-259.59847168 62.24753662 -258.59928711 61.96772949 -257.56982422 61.67944336 C-255.32543216 61.05108621 -253.08096396 60.423001 -250.83642578 59.79516602 C-245.1456921 58.20297895 -239.45600665 56.60733475 -233.76953125 55 C-223.66231541 52.14798738 -213.54711862 49.36199172 -203.375 46.75 C-195.43858556 44.71165277 -187.59216573 42.47325778 -179.76025391 40.06665039 C-173.29913318 38.09974678 -166.79159455 36.36552437 -160.25 34.6875 C-153.38832685 32.92702014 -146.59779882 31.07533818 -139.84375 28.93359375 C-126.32064818 24.7870871 -112.63269657 21.15402496 -98.9375 17.625 C-92.18158489 15.88369776 -85.49554105 14.0429117 -78.84375 11.93359375 C-64.23109663 7.45300452 -49.43119511 3.54406489 -34.62353516 -0.23388672 C-33.73327637 -0.46221191 -32.84301758 -0.69053711 -31.92578125 -0.92578125 C-31.09127441 -1.13799316 -30.25676758 -1.35020508 -29.39697266 -1.56884766 C-27.0183241 -2.18971608 -27.0183241 -2.18971608 -24.16796875 -3.41796875 C-16.08241347 -5.50558918 -7.71919464 -2.40088716 0 0 Z M-26.40625 10.1328125 C-27.40954346 10.41761475 -28.41283691 10.70241699 -29.4465332 10.99584961 C-31.05081177 11.46196655 -31.05081177 11.46196655 -32.6875 11.9375 C-33.80535889 12.25662354 -34.92321777 12.57574707 -36.07495117 12.90454102 C-39.44741208 13.86834085 -42.8174574 14.84028455 -46.1875 15.8125 C-47.96458288 16.31992493 -49.74190548 16.8265115 -51.51953125 17.33203125 C-56.74417727 18.81859899 -61.9658951 20.31529105 -67.1875 21.8125 C-81.8672675 26.02003427 -96.55190878 30.20698283 -111.26049805 34.31274414 C-117.596639 36.08275923 -123.92628707 37.87361089 -130.25 39.6875 C-139.22039747 42.26050681 -148.20287017 44.78976831 -157.1875 47.3125 C-165.88001627 49.75341869 -174.57138342 52.19749424 -183.25 54.6875 C-194.24692831 57.84250597 -205.26043286 60.93865024 -216.2723999 64.04064941 C-226.97190091 67.05484456 -237.66931456 70.07545332 -248.3515625 73.15039062 C-251.61938763 74.08938783 -254.88577361 75.00103952 -258.1875 75.8125 C-258.18580811 76.79476562 -258.18580811 76.79476562 -258.18408203 77.796875 C-258.19628949 80.80309366 -258.25406673 83.80683853 -258.3125 86.8125 C-258.30863281 88.35744141 -258.30863281 88.35744141 -258.3046875 89.93359375 C-258.53637006 99.02713411 -261.51221081 103.13164219 -267.765625 109.39453125 C-286.03759609 124.64788723 -308.06701427 135.53753419 -329.75 145.0625 C-330.57330811 145.42609619 -331.39661621 145.78969238 -332.24487305 146.16430664 C-338.93118545 149.02787402 -345.74735662 151.49825088 -352.58569336 153.97167969 C-354.1165218 154.52678726 -354.1165218 154.52678726 -355.67827606 155.09310913 C-358.18101619 156.00050059 -360.68409778 156.90693712 -363.1875 157.8125 C-363.2793961 204.2844429 -363.34971049 250.75637604 -363.39176132 297.22839216 C-363.39676313 302.73600182 -363.40194052 308.24361131 -363.40722656 313.7512207 C-363.4082758 314.84751806 -363.40932505 315.94381542 -363.41040608 317.07333391 C-363.42773095 334.73943132 -363.45922409 352.40547575 -363.49611118 370.07154191 C-363.5337426 388.24797639 -363.5557823 406.42438346 -363.56385398 424.60085529 C-363.56929617 435.78365917 -363.58637484 446.96631324 -363.61916587 458.14907091 C-363.64058915 465.85565295 -363.64663853 473.5621595 -363.64150551 481.26876903 C-363.63898606 485.69080953 -363.64236636 490.1125916 -363.6643219 494.53458405 C-363.81856136 527.27603366 -361.77460771 559.86441171 -354.1875 591.8125 C-353.98463379 592.71613281 -353.78176758 593.61976563 -353.57275391 594.55078125 C-347.88431303 619.77660311 -338.4608466 644.57588352 -327.1875 667.8125 C-326.75002441 668.73224609 -326.31254883 669.65199219 -325.86181641 670.59960938 C-303.09266496 718.36971647 -270.14351456 759.86264597 -232.9375 797.1875 C-232.4656427 797.66203613 -231.9937854 798.13657227 -231.50762939 798.62548828 C-225.90959412 804.24762259 -220.21365639 809.65388893 -214.1875 814.8125 C-212.57981627 816.26695517 -210.97510285 817.72470895 -209.375 819.1875 C-205.11139983 823.03056298 -200.74197727 826.70572734 -196.27734375 830.3125 C-194.02789335 832.13253572 -191.79276208 833.96468882 -189.56640625 835.8125 C-180.44736642 843.35141153 -171.06315517 850.40717066 -161.40478516 857.23925781 C-159.2758312 858.74982589 -157.15814243 860.27490515 -155.04296875 861.8046875 C-134.79982098 876.37396669 -113.4369572 889.43495095 -91.60253906 901.47705078 C-89.89080473 902.42359211 -88.18211682 903.37565216 -86.47558594 904.33154297 C-73.12327756 911.79785382 -59.62087516 918.63471959 -45.6875 924.9375 C-44.98553497 925.25519348 -44.28356995 925.57288696 -43.56033325 925.90020752 C-39.11701695 927.90470425 -34.6563081 929.8655558 -30.1875 931.8125 C-28.71410156 932.48104004 -28.71410156 932.48104004 -27.2109375 933.16308594 C-20.10017729 936.26475709 -16.36395534 935.69246786 -9.1796875 932.94140625 C-7.13598203 932.09708959 -5.09724797 931.24068086 -3.0625 930.375 C-1.94375488 929.89909424 -0.82500977 929.42318848 0.32763672 928.93286133 C24.04083386 918.64794768 47.12344989 906.79736389 69.21289062 893.38134766 C71.70540615 891.87713045 74.2149241 890.40776834 76.734375 888.94921875 C101.93621571 874.27337653 126.24881102 857.27738936 148.8125 838.8125 C150.41601196 837.54084068 152.02020355 836.27003796 153.625 835 C163.4405091 827.13530413 172.89780197 818.92918984 182.11157227 810.36987305 C184.23446742 808.42614573 186.38904246 806.51914429 188.5390625 804.60546875 C193.86384376 799.81948391 198.95001821 794.82327148 204 789.75 C204.85013672 788.90373047 205.70027344 788.05746094 206.57617188 787.18554688 C210.99274164 782.76215616 215.26194316 778.27226702 219.33520508 773.53051758 C221.19395285 771.36889006 223.12829931 769.28161492 225.0625 767.1875 C230.16085728 761.53516163 234.82092754 755.57793138 239.46582031 749.55322266 C240.71517866 747.93829789 241.97812873 746.33391307 243.2421875 744.73046875 C272.74946824 707.04822007 294.41072349 665.02494232 309.8125 619.8125 C310.16530029 618.79865234 310.51810059 617.78480469 310.8815918 616.74023438 C313.27681406 609.75867032 315.19024397 602.74655403 316.875 595.5625 C317.11798828 594.55832031 317.36097656 593.55414062 317.61132812 592.51953125 C321.09953139 577.84502095 323.47938431 563.20824245 324.97161865 548.21337891 C325.05807898 547.35282182 325.14453932 546.49226473 325.23361966 545.60563016 C327.0277147 527.37799547 327.3680049 509.27545814 327.27676249 490.97351193 C327.25900733 486.47383616 327.26536697 481.97417313 327.26837158 477.47447205 C327.27043955 469.73159126 327.2582045 461.98884832 327.23542023 454.2460022 C327.2025026 443.05204076 327.1924533 431.85814397 327.18746826 420.66413939 C327.17877682 402.48975985 327.15233106 384.31545332 327.11425781 366.14111328 C327.07737649 348.51709348 327.04914435 330.89309372 327.03222656 313.26904297 C327.03117567 312.17735054 327.03012477 311.08565811 327.02904204 309.96088409 C327.02382078 304.4825873 327.01876621 299.00429037 327.01379442 293.52599335 C326.97252458 248.28811175 326.90224726 203.0503097 326.8125 157.8125 C326.0349939 157.54066391 325.25748779 157.26882782 324.4564209 156.98875427 C321.49982945 155.95214781 318.54499997 154.91068929 315.59118652 153.86619568 C313.71277617 153.20353491 311.83248862 152.54620285 309.95214844 151.88903809 C282.35086892 142.11282531 239.42522035 126.02348982 222.8125 99.8125 C222.38012695 97.15527344 222.38012695 97.15527344 222.30078125 94.171875 C222.26533203 93.10195313 222.22988281 92.03203125 222.19335938 90.9296875 C222.15952148 89.26292969 222.15952148 89.26292969 222.125 87.5625 C222.07375977 85.87253906 222.07375977 85.87253906 222.02148438 84.1484375 C221.93906986 81.36989099 221.86989702 78.59165748 221.8125 75.8125 C221.0503418 75.61205078 220.28818359 75.41160156 219.50292969 75.20507812 C201.90950281 70.56886584 184.38021777 65.75551236 166.90039062 60.70458984 C162.60222076 59.46285102 158.30160297 58.22978613 154 57 C152.8097522 56.6594458 152.8097522 56.6594458 151.59545898 56.31201172 C141.30472031 53.37346761 131.00150158 50.47887777 120.70050049 47.5765686 C110.64231277 44.74253868 100.58600921 41.90298255 90.54248047 39.01733398 C85.45188005 37.55775121 80.35469899 36.12273621 75.25390625 34.69921875 C72.48165081 33.92490813 69.70952193 33.15014616 66.9375 32.375 C65.90003632 32.08497604 65.90003632 32.08497604 64.84161377 31.78909302 C56.10930417 29.34448084 47.41129762 26.81220762 38.75 24.125 C30.33410999 21.5164011 21.87278165 19.19625159 13.33422852 17.02416992 C5.68569171 15.07201086 -1.89505523 12.92274118 -9.45166016 10.64038086 C-10.26425293 10.4006958 -11.0768457 10.16101074 -11.9140625 9.9140625 C-12.97488037 9.59429443 -12.97488037 9.59429443 -14.05712891 9.26806641 C-18.46994235 8.32441412 -22.11299638 8.89893079 -26.40625 10.1328125 Z " fill="#FBFBFB" transform="translate(1018.1875,278.1875)"/>
<path d="M0 0 C3.78518732 1.4160506 7.19749321 3.15421065 10.69921875 5.16796875 C11.81248535 5.80613525 12.92575195 6.44430176 14.07275391 7.10180664 C15.27771682 7.79695534 16.4826309 8.4921887 17.6875 9.1875 C18.94434799 9.90968618 20.20134912 10.6316059 21.45849609 11.35327148 C24.68637148 13.20743067 27.91189349 15.06563953 31.13653564 16.92541504 C33.99525204 18.57392183 36.85518454 20.22031688 39.71484375 21.8671875 C45.07278109 24.95479176 50.42792501 28.04720933 55.78222656 31.14111328 C61.18670645 34.26324605 66.59347412 37.38141204 72 40.5 C74.1666775 41.74998122 76.33334417 42.99998121 78.5 44.25 C79.5725 44.86875 80.645 45.4875 81.75 46.125 C85 48 88.25 49.875 91.5 51.75 C92.57306396 52.36907227 93.64612793 52.98814453 94.75170898 53.62597656 C96.91268988 54.87270256 99.07365998 56.11944727 101.23461914 57.36621094 C106.73818851 60.54145883 112.24196032 63.71635495 117.74609375 66.890625 C119.42735352 67.86032227 119.42735352 67.86032227 121.14257812 68.84960938 C123.23104731 70.05416214 125.31958107 71.25860296 127.40820312 72.46289062 C129.38146251 73.60105935 131.33305575 74.77765337 133.26066589 75.99153137 C136.0210842 77.61560095 138.63486824 78.51399241 141.71736145 79.36271667 C147.6761961 81.33446019 152.35841893 83.74331233 156 89 C159.62578925 100.87573322 158.66140715 114.05340415 158.48632145 126.33518338 C158.43050891 131.34745455 158.46956815 136.35916507 158.49383545 141.37156677 C158.51920513 149.7863324 158.46612738 158.1978993 158.3671875 166.61206055 C158.25405739 176.32370594 158.27001578 186.02874182 158.35405469 195.74053341 C158.43170022 205.10603051 158.413143 214.46906483 158.35274506 223.83460808 C158.32904751 227.81003275 158.33952491 231.78316152 158.37815094 235.75845528 C158.41966977 240.44582143 158.37683427 245.12522115 158.27040482 249.81148911 C158.24486018 251.52448561 158.24779712 253.23819495 158.28219986 254.95103645 C158.47204949 265.4804327 158.47204949 265.4804327 156 270 C151.77949405 274.18104247 146.44405919 276.64830657 141.07703924 279.04458416 C138.1086736 280.41000061 135.36692109 282.04926066 132.56640625 283.73046875 C130.56552298 284.88353956 128.56421553 286.03587459 126.5625 287.1875 C125.46760254 287.81841553 124.37270508 288.44933105 123.24462891 289.09936523 C119.83013293 291.06690457 116.41511211 293.03353034 113 295 C108.62449212 297.51995294 104.24943866 300.04069141 99.875 302.5625 C98.25742798 303.49497559 98.25742798 303.49497559 96.60717773 304.44628906 C89.43241198 308.58622005 82.27496657 312.7549179 75.125 316.9375 C65.86073029 322.35586162 56.55375681 327.69650724 47.22866821 333.00915527 C37.74993707 338.41039762 28.30952177 343.8746938 18.90039062 349.39648438 C17.1100823 350.44580045 15.31615313 351.48897173 13.51806641 352.52490234 C11.83937991 353.50828647 10.1795757 354.52463503 8.54052734 355.57275391 C7.76789551 356.05019043 6.99526367 356.52762695 6.19921875 357.01953125 C5.53108154 357.44983643 4.86294434 357.8801416 4.17456055 358.32348633 C0.15937521 359.57262505 -3.09036695 357.46794749 -6.65527344 355.6340332 C-7.54762695 355.11156006 -8.43998047 354.58908691 -9.359375 354.05078125 C-10.37918457 353.45773193 -11.39899414 352.86468262 -12.44970703 352.25366211 C-13.53880371 351.61307861 -14.62790039 350.97249512 -15.75 350.3125 C-16.9057488 349.63817285 -18.06184266 348.96443682 -19.21826172 348.29125977 C-21.61980548 346.89270204 -24.01984804 345.49161706 -26.41894531 344.08886719 C-31.9723187 340.84524089 -37.5506203 337.64483323 -43.125 334.4375 C-52.42309566 329.07765885 -61.69937223 323.68141718 -70.96582031 318.26708984 C-81.51883187 312.10511341 -92.1066104 306.00382161 -102.69580078 299.90429688 C-106.02614252 297.98493338 -109.35509148 296.06317647 -112.68359375 294.140625 C-123.11218763 288.11754252 -133.54560449 282.10321368 -144 276.125 C-144.88469971 275.61880127 -145.76939941 275.11260254 -146.6809082 274.59106445 C-147.4874585 274.13046631 -148.29400879 273.66986816 -149.125 273.1953125 C-149.82882812 272.79328613 -150.53265625 272.39125977 -151.2578125 271.97705078 C-152.48829684 271.28697254 -153.73816018 270.63091991 -155 270 C-155.63223892 246.80906425 -156.10755202 223.61955826 -156.39892864 200.42173767 C-156.53785675 189.64866208 -156.72700986 178.88095513 -157.03686523 168.11132812 C-157.30699371 158.71796449 -157.48038855 149.3284874 -157.54038936 139.93134785 C-157.57545141 134.95831497 -157.65699513 129.99639245 -157.85471153 125.02694702 C-158.9809444 95.58944666 -158.9809444 95.58944666 -153.81015062 88.32939148 C-147.78450233 81.82582148 -139.57747714 78.45655887 -131.43114662 75.37466431 C-126.08547402 73.23295888 -121.25190687 70.31004448 -116.3125 67.375 C-114.43228457 66.31309675 -112.54977109 65.25524271 -110.6640625 64.203125 C-103.79390694 60.33375439 -96.99107581 56.35120417 -90.1862793 52.3684082 C-79.57624194 46.15988856 -68.92565517 40.02249734 -58.2734375 33.88671875 C-55.0352484 32.0203162 -51.79860562 30.15126237 -48.5625 28.28125 C-39.44438143 23.01354118 -30.32456468 17.74946371 -21.17578125 12.53515625 C-20.20279083 11.98037346 -20.20279083 11.98037346 -19.21014404 11.41438293 C-16.04845368 9.61193992 -12.88569543 7.81141459 -9.72119141 6.01391602 C-8.59503418 5.37252686 -7.46887695 4.7311377 -6.30859375 4.0703125 C-4.80510376 3.21590576 -4.80510376 3.21590576 -3.27124023 2.34423828 C-1.10819715 1.19098526 -1.10819715 1.19098526 0 0 Z M-4.3828125 39.3515625 C-5.28990967 39.86565674 -6.19700684 40.37975098 -7.1315918 40.90942383 C-8.61332886 41.75863403 -8.61332886 41.75863403 -10.125 42.625 C-11.15471924 43.21112061 -12.18443848 43.79724121 -13.24536133 44.40112305 C-21.41667036 49.06398044 -29.54471186 53.80009054 -37.66259766 58.55517578 C-45.41192408 63.08963451 -53.19899533 67.55537336 -61 72 C-75.44139839 80.16325845 -75.44139839 80.16325845 -89.70445347 88.62913132 C-94.79348312 91.70192622 -99.76885109 94.40103358 -105.29899597 96.59597778 C-116.90759221 101.52114312 -116.90759221 101.52114312 -124.36783218 111.17293549 C-126.41441277 120.01881061 -126.1474013 129.01207657 -125.86156487 138.03192282 C-125.75887811 141.97707694 -125.7839735 145.92175183 -125.79130554 149.86795044 C-125.78467086 156.48582467 -125.68506846 163.09705227 -125.5246582 169.71289062 C-125.34034632 177.34596561 -125.28635239 184.97122665 -125.3054021 192.60632598 C-125.32231826 199.97999902 -125.26495879 207.35108785 -125.1679287 214.72409439 C-125.12703024 217.84935825 -125.108624 220.97353399 -125.10805702 224.09905624 C-125.10275561 227.78095944 -125.03116659 231.45600366 -124.90944099 235.13583946 C-124.85845608 237.11831879 -124.87013785 239.10210389 -124.88406372 241.08518982 C-124.72015371 244.80907386 -124.44094006 247.55713117 -123 251 C-119.01483322 254.56959339 -114.83209117 256.68953533 -110 259 C-107.79342748 260.22666384 -105.62484822 261.50741751 -103.44921875 262.7890625 C-101.19637346 264.06957672 -98.94243321 265.34816611 -96.6875 266.625 C-94.21390363 268.0309032 -91.74154681 269.43897565 -89.26953125 270.84765625 C-88.65392334 271.19833664 -88.03831543 271.54901703 -87.40405273 271.9103241 C-81.53835699 275.25562191 -75.70300524 278.65199438 -69.875 282.0625 C-57.28151748 289.42988079 -44.64262631 296.7173643 -32 304 C-27.8036869 306.41783662 -23.60779716 308.83640662 -19.41229248 311.25564575 C-17.72901778 312.22606473 -16.04542113 313.19592519 -14.36181641 314.16577148 C-13.33878418 314.75559814 -12.31575195 315.3454248 -11.26171875 315.953125 C-10.36412842 316.47036133 -9.46653809 316.98759766 -8.54174805 317.52050781 C-6.78879092 318.54086322 -5.0588864 319.60151508 -3.34985352 320.69384766 C-1.03137991 322.24014163 -1.03137991 322.24014163 1.859375 321.9453125 C5.69844274 320.78977221 8.87251777 318.97578489 12.25 316.875 C13.76603157 315.95815302 15.28302258 315.04289132 16.80078125 314.12890625 C17.62916504 313.62762207 18.45754883 313.12633789 19.31103516 312.60986328 C24.31598263 309.6134384 29.38025828 306.71947188 34.4375 303.8125 C36.68626842 302.51704947 38.93496541 301.22147492 41.18359375 299.92578125 C42.31265137 299.27561035 43.44170898 298.62543945 44.60498047 297.95556641 C50.07169975 294.80667949 55.53577646 291.6532151 61 288.5 C67.52232439 284.73634635 74.04513763 280.97355377 80.5703125 277.21484375 C91.57947155 270.87180209 102.58056625 264.51507256 113.5625 258.125 C114.59842285 257.52357178 115.6343457 256.92214355 116.70166016 256.30249023 C117.64702637 255.75149658 118.59239258 255.20050293 119.56640625 254.6328125 C120.40115479 254.14699707 121.23590332 253.66118164 122.09594727 253.16064453 C123.93846097 252.14011742 123.93846097 252.14011742 125 251 C125.14885759 249.18537818 125.22858418 247.36506088 125.28175354 245.54512024 C125.31781204 244.36075378 125.35387054 243.17638733 125.39102173 241.95613098 C125.42513153 240.64456528 125.45924133 239.33299957 125.49438477 237.98168945 C125.53336901 236.5954052 125.57245944 235.20912393 125.61164856 233.82284546 C125.9586106 221.12020227 126.16220078 208.41477585 126.32562351 195.70858479 C126.43811018 187.16850795 126.5954225 178.63408745 126.86547852 170.09741211 C127.10110097 162.64759174 127.2506493 155.20175807 127.29879421 147.74828118 C127.327088 143.80496656 127.39610059 139.87255437 127.56808662 135.9326725 C128.77760694 119.61676114 128.77760694 119.61676114 122.65113449 105.32625961 C116.91361766 100.75630371 110.63022907 97.79377942 103.8283062 95.1408596 C100.09200644 93.6337408 96.81265944 91.71822884 93.375 89.625 C91.25049981 88.41578812 89.12550957 87.20743675 87 86 C78.30446548 81.04891897 69.63495486 76.05624499 61 71 C51.08151459 65.19265733 41.11519311 59.47218131 31.12744141 53.78515625 C25.76192004 50.72882413 20.403631 47.66198394 15.07421875 44.54296875 C14.18710205 44.02436279 13.29998535 43.50575684 12.38598633 42.97143555 C10.75730827 42.01703179 9.13070729 41.05907121 7.5065918 40.09692383 C2.21200192 36.99557385 0.8818993 36.35511792 -4.3828125 39.3515625 Z " fill="#010101" transform="translate(997,736)"/>
<path d="M0 0 C3.60863736 1.66517968 7.00186065 3.57180026 10.390625 5.63671875 C11.90419086 6.54293231 13.41856819 7.44779142 14.93359375 8.3515625 C16.17568604 9.0938208 16.17568604 9.0938208 17.44287109 9.85107422 C22.50198866 12.84808631 27.60556672 15.76824554 32.703125 18.69921875 C41.71357015 23.88970817 50.71601944 29.09343452 59.703125 34.32421875 C60.73832275 34.92524414 61.77352051 35.52626953 62.84008789 36.14550781 C63.7861792 36.6969043 64.73227051 37.24830078 65.70703125 37.81640625 C66.54177979 38.30222168 67.37652832 38.78803711 68.23657227 39.28857422 C70.140625 40.44921875 70.140625 40.44921875 71.140625 41.44921875 C71.23572059 44.06610316 71.266185 46.65650775 71.25415039 49.27368164 C71.25429642 50.09312759 71.25444244 50.91257355 71.2545929 51.7568512 C71.25389352 54.47855228 71.24610001 57.2001858 71.23828125 59.921875 C71.23641716 61.80374616 71.23499321 63.68561781 71.23399353 65.56748962 C71.23016767 70.53070404 71.22033681 75.49388939 71.20928955 80.45709229 C71.1990769 85.51761481 71.19449622 90.57814202 71.18945312 95.63867188 C71.1787146 105.57553363 71.16163736 115.51237378 71.140625 125.44921875 C70.3641008 125.89266632 69.5875766 126.33611389 68.78752136 126.79299927 C65.83478574 128.47934965 62.88216341 130.16589809 59.92961121 131.85256958 C58.6651487 132.57485443 57.4006444 133.29706611 56.13609314 134.01919556 C47.2320102 139.10401393 38.33859978 144.20695024 29.453125 149.32421875 C28.3296315 149.97022034 27.206138 150.61622192 26.04859924 151.28179932 C21.30059024 154.01286821 16.57867922 156.77302848 11.9140625 159.64453125 C11.12990967 160.12293457 10.34575684 160.60133789 9.5378418 161.09423828 C8.11734541 161.96527518 6.70401247 162.84816392 5.30004883 163.74560547 C0.78242749 166.50758874 0.78242749 166.50758874 -2.20288086 166.23608398 C-5.30354201 165.31765453 -7.83527964 164.00542165 -10.65625 162.421875 C-11.77088623 161.79982178 -12.88552246 161.17776855 -14.03393555 160.53686523 C-15.22591987 159.8621187 -16.41772929 159.18706312 -17.609375 158.51171875 C-18.84069089 157.82001849 -20.07221917 157.12869618 -21.30395508 156.43774414 C-29.76521761 151.68049785 -38.15721397 146.81262598 -46.49804688 141.84765625 C-51.58321315 138.83609376 -56.69192578 135.86457446 -61.796875 132.88671875 C-63.3905188 131.95557251 -63.3905188 131.95557251 -65.01635742 131.00561523 C-66.49906128 130.14045288 -66.49906128 130.14045288 -68.01171875 129.2578125 C-68.89851318 128.74017334 -69.78530762 128.22253418 -70.69897461 127.68920898 C-72.06499004 126.90516645 -73.45062496 126.15359377 -74.859375 125.44921875 C-75.16109498 114.63592827 -75.39181675 103.82364424 -75.53293324 93.00699615 C-75.60067977 87.9836168 -75.69248057 82.96312389 -75.84008789 77.94140625 C-75.98175639 73.09115996 -76.05914596 68.24368118 -76.09277916 63.39152527 C-76.11673087 61.5444123 -76.16351314 59.69744482 -76.23386574 57.85151672 C-76.66310317 46.11822239 -76.66310317 46.11822239 -74.859375 41.44921875 C-70.94388739 37.43697443 -67.03565419 35.61978691 -61.859375 33.44921875 C-59.85288931 32.30959117 -57.85916744 31.14679213 -55.88671875 29.94921875 C-53.85796274 28.78048067 -51.82797596 27.61387688 -49.796875 26.44921875 C-48.70286377 25.81983398 -47.60885254 25.19044922 -46.48168945 24.54199219 C-36.64478235 18.88749326 -26.79306156 13.25868532 -16.93530273 7.640625 C-15.82098877 7.00511719 -14.7066748 6.36960937 -13.55859375 5.71484375 C-12.57721436 5.15571289 -11.59583496 4.59658203 -10.5847168 4.02050781 C-8.7550225 2.9656021 -6.95324726 1.86085952 -5.18188477 0.71069336 C-2.859375 -0.55078125 -2.859375 -0.55078125 0 0 Z " fill="#020202" transform="translate(999.859375,832.55078125)"/>
<path d="M0 0 C11.22 0 22.44 0 34 0 C42.48108325 17.36318352 42.48108325 17.36318352 45.87988281 24.3449707 C46.80270917 26.24040941 47.72556075 28.13583583 48.6484375 30.03125 C49.10762573 30.97441574 49.56681396 31.91758148 50.03991699 32.889328 C52.41103379 37.75514313 54.79336428 42.61491808 57.1998291 47.46334839 C64.43431626 62.04062479 70.79888251 76.57459363 76 92 C75.8570752 90.9884082 75.71415039 89.97681641 75.56689453 88.93457031 C73.39277252 71.75966506 73.76825473 54.52585179 73.8626709 37.25024414 C73.883436 33.03924596 73.89232895 28.82822253 73.90234375 24.6171875 C73.92354707 16.41138281 73.95860839 8.2057277 74 0 C82.25 0 90.5 0 99 0 C99 39.27 99 78.54 99 119 C87.78 119 76.56 119 65 119 C63.081875 114.83375 61.16375 110.6675 59.1875 106.375 C55.05062467 97.42728447 50.83470358 88.54208033 46.375 79.75 C38.01597206 63.22109002 30.10127849 46.50577793 24 29 C23.77124046 34.65544413 23.97176783 40.14070512 24.71609497 45.75553894 C26.52127224 59.82798527 26.23090361 73.95951205 26.1373291 88.11834717 C26.11651163 91.61207555 26.10754905 95.1058358 26.09765625 98.59960938 C26.07756677 105.39989932 26.03838368 112.19969164 26 119 C17.42 119 8.84 119 0 119 C0 79.73 0 40.46 0 0 Z " fill="#030303" transform="translate(1169,494)"/>
<path d="M0 0 C4.72493413 2.4791321 9.33198566 5.11393379 13.9140625 7.84765625 C16.07773799 9.12435403 18.24181416 10.40037296 20.40625 11.67578125 C21.52225586 12.33513672 22.63826172 12.99449219 23.78808594 13.67382812 C29.1853258 16.84940981 34.6117025 19.97392185 40.0390625 23.09765625 C42.22397626 24.35673973 44.40887199 25.61585448 46.59375 26.875 C47.67881836 27.50003418 48.76388672 28.12506836 49.88183594 28.76904297 C56.3876586 32.51748855 62.89050333 36.27109806 69.39379883 40.02392578 C74.92143531 43.2134442 80.45005631 46.40123446 85.98046875 49.5859375 C87.11033203 50.23691406 88.24019531 50.88789062 89.40429688 51.55859375 C91.51852104 52.77666529 93.63306869 53.99417565 95.74804688 55.2109375 C97.71217645 56.34285238 99.65897628 57.50547223 101.58555603 58.70018005 C104.14227754 60.2056818 106.61498304 61.18193601 109.43666077 62.08778381 C114.58428324 63.98745341 118.8524025 66.16489643 122.1640625 70.66015625 C125.28261999 79.98715268 124.49512602 90.56017455 124.31586981 100.28650331 C124.25759446 104.24260891 124.28616319 108.1982586 124.30178833 112.15463257 C124.31438567 118.79486412 124.25836997 125.43182117 124.16064453 132.07128906 C124.04866608 139.73358007 124.04356626 147.39028438 124.09602439 155.05308783 C124.14432495 162.44560939 124.11886619 169.83611316 124.05942154 177.22849655 C124.03535577 180.36515547 124.0364735 183.50028519 124.05816269 186.63695145 C124.08024832 190.33466634 124.03735112 194.02623912 123.94544983 197.72282219 C123.91085653 199.71523597 123.93949295 201.7084376 123.97036743 203.70091248 C123.83815634 207.43863678 123.58530035 210.19554214 122.1640625 213.66015625 C118.18271362 217.24072302 114.00243836 219.35248184 109.1640625 221.66015625 C106.95714379 222.88632479 104.78881841 224.16726797 102.61328125 225.44921875 C100.36044568 226.72975007 98.10650481 228.00833843 95.8515625 229.28515625 C93.37535805 230.6923546 90.9003822 232.10170281 88.42578125 233.51171875 C87.80976044 233.86260559 87.19373962 234.21349243 86.55905151 234.57501221 C80.73665857 237.89567478 74.94728888 241.27178686 69.1640625 244.66015625 C60.52922741 249.71670182 51.85801636 254.70626311 43.1640625 259.66015625 C22.51098428 270.85382479 22.51098428 270.85382479 2.74194336 283.3972168 C-0.62537946 285.04691477 -2.26770946 284.67524558 -5.8359375 283.66015625 C-8.30761719 282.49951172 -8.30761719 282.49951172 -10.7578125 281.02734375 C-11.68706543 280.4763501 -12.61631836 279.92535645 -13.57373047 279.35766602 C-15.06477295 278.45552368 -15.06477295 278.45552368 -16.5859375 277.53515625 C-18.74953871 276.24922356 -20.91361752 274.96409415 -23.078125 273.6796875 C-24.75213379 272.68122803 -24.75213379 272.68122803 -26.45996094 271.66259766 C-31.84846851 268.46643486 -37.27946345 265.34505411 -42.7109375 262.22265625 C-44.89592186 260.96369529 -47.08081722 259.70457987 -49.265625 258.4453125 C-50.35069336 257.82027832 -51.43576172 257.19524414 -52.55371094 256.55126953 C-59.0595336 252.80282395 -65.56237833 249.04921444 -72.06567383 245.29638672 C-77.59331031 242.1068683 -83.12193131 238.91907804 -88.65234375 235.734375 C-98.41605644 230.11039789 -108.17897274 224.48538032 -117.8984375 218.78515625 C-118.60105713 218.37418701 -119.30367676 217.96321777 -120.02758789 217.53979492 C-124.71546033 214.78063342 -124.71546033 214.78063342 -125.8359375 213.66015625 C-125.93241998 211.81254357 -125.95781068 209.96119815 -125.95619202 208.11106873 C-125.95756668 206.90647003 -125.95894135 205.70187134 -125.96035767 204.46076965 C-125.95681806 203.11373877 -125.95318325 201.76670813 -125.94946289 200.41967773 C-125.94918102 199.01068117 -125.94933875 197.60168446 -125.9499054 196.19268799 C-125.95019339 192.35607995 -125.94429644 188.51950291 -125.93733144 184.6829021 C-125.93109813 180.67768684 -125.93049412 176.67247095 -125.92930603 172.66725159 C-125.92619265 165.07763621 -125.91797917 157.48803517 -125.90795654 149.89842612 C-125.89679562 141.26011701 -125.89128501 132.62180724 -125.88626111 123.98349273 C-125.87579656 106.2090391 -125.85819698 88.43459883 -125.8359375 70.66015625 C-122.26833689 68.60179021 -118.70072009 66.54345223 -115.13308907 64.48513889 C-113.92248548 63.78668675 -112.71188612 63.08822729 -111.50129128 62.38976002 C-105.15284474 58.72695375 -98.80424074 55.06442671 -92.453125 51.40625 C-82.27191502 45.54071065 -72.10307265 39.65553166 -61.9609375 33.72265625 C-51.99820645 27.89635234 -41.99682949 22.13890776 -31.95507812 16.44995117 C-26.6075683 13.41644911 -21.28867076 10.35310392 -16.05078125 7.1328125 C-15.18171143 6.60518311 -14.3126416 6.07755371 -13.41723633 5.53393555 C-11.83228654 4.56683419 -10.25697707 3.58366628 -8.6940918 2.58129883 C-3.70205256 -0.4436344 -3.70205256 -0.4436344 0 0 Z M-9.8359375 14.72265625 C-11.3886452 15.64827322 -12.94207786 16.57267478 -14.49609375 17.49609375 C-15.34961426 18.00366211 -16.20313477 18.51123047 -17.08251953 19.03417969 C-22.12354021 22.01105482 -27.19980495 24.92682998 -32.2734375 27.84765625 C-33.37880859 28.48453369 -34.48417969 29.12141113 -35.62304688 29.77758789 C-37.89553807 31.08681855 -40.16816274 32.39581757 -42.44091797 33.70458984 C-47.90763724 36.85347675 -53.37172103 40.00692893 -58.8359375 43.16015625 C-65.4400187 46.97116363 -72.04478722 50.78095811 -78.65234375 54.5859375 C-88.41605644 60.20991461 -98.17897274 65.83493218 -107.8984375 71.53515625 C-108.60105713 71.94612549 -109.30367676 72.35709473 -110.02758789 72.78051758 C-113.10835761 74.48008507 -113.10835761 74.48008507 -115.8359375 76.66015625 C-115.93215786 78.36841313 -115.95781378 80.08067739 -115.95619202 81.79164124 C-115.95825401 83.45970573 -115.95825401 83.45970573 -115.96035767 85.16146851 C-115.95676239 86.39217072 -115.95316711 87.62287292 -115.94946289 88.89086914 C-115.94960892 90.17848648 -115.94975494 91.46610382 -115.9499054 92.79273987 C-115.95019336 96.33390385 -115.94429686 99.87503424 -115.93733144 103.41619039 C-115.93109767 107.11310613 -115.93049408 110.81002256 -115.92930603 114.50694275 C-115.92619278 121.51219524 -115.91797949 128.5174322 -115.90795654 135.52267784 C-115.8967952 143.49594501 -115.8912849 151.4692129 -115.88626111 159.44248593 C-115.87579687 175.84838514 -115.85819755 192.25426872 -115.8359375 208.66015625 C-115.12279892 209.05840103 -114.40966034 209.45664581 -113.6749115 209.86695862 C-110.98898572 211.36742114 -108.30349094 212.86865154 -105.61827087 214.37037659 C-103.90058209 215.33070821 -102.182413 216.29018058 -100.4642334 217.24963379 C-94.40565993 220.63866564 -88.36928652 224.05616462 -82.3984375 227.59765625 C-81.70217758 228.01046341 -81.00591766 228.42327057 -80.28855896 228.84858704 C-79.65450638 229.22468613 -79.0204538 229.60078522 -78.3671875 229.98828125 C-72.7372588 233.32017542 -67.06673991 236.58162247 -61.3984375 239.84765625 C-59.74521484 240.80031372 -59.74521484 240.80031372 -58.05859375 241.7722168 C-55.79308045 243.07734234 -53.52745416 244.3822718 -51.26171875 245.68701172 C-46.74183748 248.29032418 -42.22320711 250.89579633 -37.70581055 253.50341797 C-35.51874346 254.76428709 -33.33012651 256.02247205 -31.13989258 257.27783203 C-26.115968 260.1617162 -21.12295739 263.07762059 -16.19140625 266.1171875 C-15.32378662 266.6440918 -14.45616699 267.17099609 -13.56225586 267.71386719 C-11.96275511 268.68842251 -10.37283298 269.67895802 -8.79516602 270.68847656 C-4.68420906 273.19984958 -4.68420906 273.19984958 0.0078125 273.32421875 C4.72588493 270.83672017 9.33377666 268.20531017 13.9140625 265.47265625 C16.07773799 264.19595847 18.24181416 262.91993954 20.40625 261.64453125 C21.52225586 260.98517578 22.63826172 260.32582031 23.78808594 259.64648438 C29.1853258 256.47090269 34.6117025 253.34639065 40.0390625 250.22265625 C42.22397626 248.96357277 44.40887199 247.70445802 46.59375 246.4453125 C47.67881836 245.82027832 48.76388672 245.19524414 49.88183594 244.55126953 C55.31066193 241.42335476 60.73724885 238.29156059 66.1640625 235.16015625 C68.30598148 233.92446511 70.44790859 232.68878808 72.58984375 231.453125 C76.56868682 229.15766167 80.54737023 226.86192211 84.52584839 224.56582642 C86.31473168 223.53342147 88.10364967 222.50107669 89.89257812 221.46875 C92.13743886 220.17329677 94.3822344 218.87773055 96.62695312 217.58203125 C97.64337891 216.99550781 98.65980469 216.40898438 99.70703125 215.8046875 C100.59414795 215.29268799 101.48126465 214.78068848 102.39526367 214.25317383 C105.6476214 212.38194253 108.90591601 210.52129034 112.1640625 208.66015625 C112.46808163 191.5880733 112.69714606 174.51683769 112.83762074 157.4426651 C112.90458772 149.5142404 112.99583428 141.58749971 113.14477539 133.66015625 C113.27457136 126.7484974 113.35826792 119.83805801 113.38721293 112.92521429 C113.40412972 109.26589272 113.44370384 105.61005869 113.53855324 101.95185852 C114.65956055 87.78354248 114.65956055 87.78354248 110.92341805 74.68925667 C107.52973825 71.33117202 103.69101125 70.06612767 99.1640625 68.66015625 C97.12329844 67.52817964 95.10408842 66.3553744 93.12109375 65.125 C91.07401776 63.94730276 89.02580428 62.77158087 86.9765625 61.59765625 C85.27363468 60.61864512 83.5707087 59.63963078 81.8678894 58.66043091 C80.12010789 57.65568326 78.37185654 56.65175711 76.62353516 55.64794922 C71.13267038 52.49293009 65.64853324 49.3262729 60.1640625 46.16015625 C53.61943707 42.38279761 47.0737511 38.60733181 40.5234375 34.83984375 C38.32022585 33.57176512 36.11710013 32.30353719 33.9140625 31.03515625 C32.84865234 30.42212646 31.78324219 29.80909668 30.68554688 29.17749023 C25.34006841 26.09484925 20.01226291 22.98617262 14.7109375 19.828125 C13.69161133 19.2211377 12.67228516 18.61415039 11.62207031 17.98876953 C9.69186706 16.83631903 7.76401399 15.67992046 5.83886719 14.51904297 C4.98711914 14.01002441 4.13537109 13.50100586 3.2578125 12.9765625 C2.51208984 12.52740479 1.76636719 12.07824707 0.99804688 11.61547852 C-3.18786326 9.43503837 -6.23010201 12.54459268 -9.8359375 14.72265625 Z " fill="#F8F8F8" transform="translate(999.8359375,773.33984375)"/>
<path d="M0 0 C61.25140713 0 61.25140713 0 71.3046875 9.08203125 C79.51925422 17.91344273 81.41489149 26.39677838 81.265625 38.30078125 C80.48666344 49.14896652 76.18159924 56.89139738 68 64 C64.45244167 66.36913065 61.36142642 68 57 68 C57 68.66 57 69.32 57 70 C57.721875 70.061875 58.44375 70.12375 59.1875 70.1875 C66.68944369 72.35472818 70.34271596 81.0324805 74.125 87.25 C75.45056015 89.40442329 76.77739317 91.55806391 78.10546875 93.7109375 C78.75950684 94.77280273 79.41354492 95.83466797 80.08740234 96.92871094 C83.25167302 102.00996254 86.53323174 107.0143191 89.85009766 111.99707031 C93 116.78666443 93 116.78666443 93 119 C82.77 119 72.54 119 62 119 C60.5975 116.298125 59.195 113.59625 57.75 110.8125 C52.48786283 100.75449097 46.98563724 90.82009474 41.16845703 81.07128906 C40 79 40 79 38.83984375 75.9609375 C36.18671674 72.69807412 36.18671674 72.69807412 26 73 C26 88.18 26 103.36 26 119 C17.42 119 8.84 119 0 119 C0 79.73 0 40.46 0 0 Z " fill="#020202" transform="translate(954,494)"/>
<path d="M0 0 C13.53 0 27.06 0 41 0 C60.5 65 60.5 65 61.25024414 67.50097656 C61.74931084 69.16442388 62.24849667 70.82783546 62.74780273 72.49121094 C64.01307112 76.70684575 65.27613945 80.92311857 66.53515625 85.140625 C67.04417453 86.84377878 67.55328821 88.54690406 68.0625 90.25 C68.43109131 91.48447876 68.43109131 91.48447876 68.80712891 92.74389648 C70.00510263 96.74124941 71.22337752 100.7303075 72.48828125 104.70703125 C72.83910767 105.81159668 72.83910767 105.81159668 73.19702148 106.93847656 C73.63653359 108.31541403 74.07982561 109.69115293 74.52758789 111.06542969 C75.41636395 113.84621307 76 116.0571278 76 119 C66.76 119 57.52 119 48 119 C46.845 114.75125 45.69 110.5025 44.5 106.125 C44.13455078 104.7858252 43.76910156 103.44665039 43.39257812 102.06689453 C42.9662207 100.49077393 42.9662207 100.49077393 42.53125 98.8828125 C42.23798828 97.80402832 41.94472656 96.72524414 41.64257812 95.61376953 C41 93 41 93 41 91 C27.47 91.33 13.94 91.66 0 92 C-2.26238964 100.51061018 -2.26238964 100.51061018 -4.51733398 109.02319336 C-4.79907471 110.07643799 -5.08081543 111.12968262 -5.37109375 112.21484375 C-5.65911865 113.29886475 -5.94714355 114.38288574 -6.24389648 115.49975586 C-7 118 -7 118 -8 119 C-9.99964982 119.08758003 -12.0023611 119.10696576 -14.00390625 119.09765625 C-15.82631836 119.09282227 -15.82631836 119.09282227 -17.68554688 119.08789062 C-18.96494141 119.07951172 -20.24433594 119.07113281 -21.5625 119.0625 C-22.84576172 119.05798828 -24.12902344 119.05347656 -25.45117188 119.04882812 C-28.63416022 119.03699545 -31.81705762 119.02051068 -35 119 C-33.95292872 113.31802551 -32.77185414 107.88758063 -30.8125 102.4375 C-28.61276847 96.05669483 -26.75172434 89.63020753 -24.97265625 83.12109375 C-20.68209958 67.62157624 -15.99290093 52.24630938 -11.30639648 36.86315918 C-10.38346176 33.8316278 -9.46292603 30.7993703 -8.54247475 27.76708412 C-6.64353148 21.51146714 -4.74284613 15.25637891 -2.83837891 9.00244141 C-2.3404332 7.36681747 -2.3404332 7.36681747 -1.83242798 5.69815063 C-1.24423574 3.79164184 -0.63093152 1.89279457 0 0 Z " fill="#030303" transform="translate(866,494)"/>
<path d="M0 0 C8.58 0 17.16 0 26 0 C26.0093457 2.34077637 26.01869141 4.68155273 26.02832031 7.09326172 C26.06219824 14.85661273 26.1178069 22.61970095 26.18390274 30.38284111 C26.22328902 35.08629559 26.2555207 39.78956532 26.27099609 44.49316406 C26.28622124 49.03863751 26.32076975 53.58360277 26.36830902 58.12884903 C26.38306269 59.85659474 26.39103754 61.58441303 26.39188385 63.31222153 C26.40554544 78.69322535 26.40554544 78.69322535 33.5 92 C39.3769921 96.70159368 44.64732998 96.62176941 52 96 C57.21056505 94.29472417 59.89835481 91.48015417 63 87 C64.78341921 81.91648066 65.30288252 77.20419804 65.31884766 71.86157227 C65.32889328 71.08026443 65.3389389 70.2989566 65.34928894 69.49397278 C65.37995599 66.9347908 65.3971098 64.37571263 65.4140625 61.81640625 C65.43278744 60.03278216 65.45236183 58.2491668 65.4727478 56.46556091 C65.52393499 51.78855555 65.56363226 47.1115215 65.60089111 42.43438721 C65.64101512 37.65475447 65.69206905 32.87523966 65.7421875 28.09570312 C65.83878792 18.73054361 65.92223216 9.36533486 66 0 C74.91 0 83.82 0 93 0 C93.06808205 10.07579372 93.12299155 20.15143184 93.15543652 30.22740459 C93.1710173 34.90730603 93.19211496 39.58704039 93.22631836 44.2668457 C93.25918496 48.79265268 93.27690989 53.31830009 93.28463173 57.8442173 C93.29012668 59.56118083 93.30085526 61.27813674 93.31719017 62.99503136 C93.46291475 78.96300961 92.21442926 95.68657364 80.625 107.9375 C69.663321 117.81743436 57.4305495 120.35287303 42.953125 120.2109375 C30.31259967 119.53644307 20.51442798 115.25091195 11 107 C9.12109375 104.66015625 9.12109375 104.66015625 7.4375 102.0625 C6.87933594 101.22847656 6.32117187 100.39445313 5.74609375 99.53515625 C-0.17577985 87.54568062 -0.54824802 76.6546111 -0.390625 63.57421875 C-0.38314745 61.73192464 -0.37746169 59.88962247 -0.37347412 58.0473175 C-0.35833681 53.24188557 -0.31916043 48.43695157 -0.2746582 43.63171387 C-0.2334459 38.7109246 -0.21540814 33.79005342 -0.1953125 28.86914062 C-0.15265219 19.24584186 -0.08240261 9.62304059 0 0 Z " fill="#030303" transform="translate(1056,494)"/>
<path d="M0 0 C2.87744141 1.37939453 2.87744141 1.37939453 5.8515625 3.1328125 C6.95113281 3.77476562 8.05070313 4.41671875 9.18359375 5.078125 C10.33087612 5.76016953 11.47801114 6.442462 12.625 7.125 C13.73746094 7.77726563 14.84992187 8.42953125 15.99609375 9.1015625 C18.23819423 10.41706732 20.4647503 11.75942097 22.67504883 13.12768555 C25.92992735 15.09123865 25.92992735 15.09123865 29.45581055 16.19458008 C33.33724911 17.69663473 35.33840049 18.76604977 38 22 C40.03315174 28.79448511 39.76493381 36.00030634 39.61938477 43.02368164 C39.56262526 46.4299825 39.63909205 49.81546324 39.72851562 53.22070312 C39.83188077 68.78891794 39.83188077 68.78891794 35.50317383 74.01367188 C32.68740611 75.75888475 29.97614605 77.08022217 26.87490845 78.23452759 C23.63295301 79.55812686 20.7717556 81.49181003 17.81640625 83.3515625 C16.61268966 84.06829453 15.4062959 84.78054951 14.19726562 85.48828125 C12.35798476 86.56571953 10.5237626 87.6485077 8.70141602 88.75439453 C6.89645925 89.84814942 5.0776923 90.91458158 3.25390625 91.9765625 C2.19502197 92.60643066 1.1361377 93.23629883 0.04516602 93.88525391 C-3 95 -3 95 -6.0546875 94.375 C-8.92191344 93.0364542 -11.65260667 91.62969445 -14.37890625 90.0234375 C-15.38373047 89.43433594 -16.38855469 88.84523438 -17.42382812 88.23828125 C-18.9774707 87.31595703 -18.9774707 87.31595703 -20.5625 86.375 C-21.57119141 85.78332031 -22.57988281 85.19164062 -23.61914062 84.58203125 C-25.68862357 83.36375966 -27.74130167 82.1165364 -29.77709961 80.84277344 C-32.98401416 78.89491506 -32.98401416 78.89491506 -36.64672852 77.63378906 C-40.81667157 75.84898632 -43.1201629 74.53723073 -46 71 C-48.18213306 62.94626189 -47.21276786 54.23657151 -46.8125 46 C-46.74725022 43.67594208 -46.68794166 41.35170927 -46.63476562 39.02734375 C-46.49190136 33.3477327 -46.27480839 27.67467576 -46 22 C-44.26826173 20.99994361 -42.53648159 19.99995973 -40.8046875 19 C-39.7022168 18.36320313 -38.59974609 17.72640625 -37.46386719 17.0703125 C-35.06778702 15.68711703 -32.66987824 14.30716708 -30.27050781 12.9296875 C-22.77791991 8.62816961 -22.77791991 8.62816961 -15.3671875 4.1875 C-14.73699707 3.80722656 -14.10680664 3.42695312 -13.45751953 3.03515625 C-11.87617739 2.07649301 -10.3048064 1.10143403 -8.734375 0.125 C-5.26647229 -1.30179426 -3.62518511 -0.86931307 0 0 Z " fill="#FDFDFD" transform="translate(1002,869)"/>
<path d="M0 0 C2.48168945 1.17651367 2.48168945 1.17651367 5.11328125 2.66796875 C6.10126709 3.22411865 7.08925293 3.78026855 8.10717773 4.35327148 C9.16493408 4.95856689 10.22269043 5.5638623 11.3125 6.1875 C12.42117432 6.815354 13.52984863 7.44320801 14.67211914 8.09008789 C24.10130341 13.44583248 33.47131634 18.90297233 42.82421875 24.390625 C47.25189443 26.98558923 51.69323194 29.5552676 56.14453125 32.109375 C56.73962997 32.45114273 57.3347287 32.79291046 57.94786072 33.14503479 C60.83840438 34.80479494 63.73039885 36.46187958 66.62475586 38.11499023 C67.66124268 38.70997314 68.69772949 39.30495605 69.765625 39.91796875 C70.68118164 40.44156982 71.59673828 40.9651709 72.54003906 41.50463867 C73.35182617 41.99810791 74.16361328 42.49157715 75 43 C75.70137085 43.33705963 76.4027417 43.67411926 77.12536621 44.02139282 C80.19115261 47.25721787 79.52365671 50.86359873 79.45410156 55.15307617 C79.45468567 56.08985703 79.45526978 57.02663788 79.45587158 57.99180603 C79.4530817 61.09256871 79.42194666 64.19237372 79.390625 67.29296875 C79.38316584 69.44101944 79.37747137 71.58907692 79.37347412 73.73713684 C79.35819232 79.39426419 79.31888827 85.05098156 79.2746582 90.70794678 C79.23376056 96.47906955 79.21547487 102.25025849 79.1953125 108.02148438 C79.15239672 119.3478365 79.08411438 130.67388418 79 142 C59.95703125 152.98632813 59.95703125 152.98632813 58.22469807 153.98574352 C55.30359965 155.6709827 52.38251856 157.3562519 49.46147156 159.0415802 C48.33167374 159.69341782 47.20187592 160.34525543 46.0378418 161.0168457 C45.03037399 161.59811722 44.02290619 162.17938873 42.98490906 162.77827454 C39.85100988 164.585939 36.71655543 166.39263831 33.58203125 168.19921875 C29.5794982 170.50783879 25.5808029 172.82284973 21.5866394 175.14590454 C19.19684332 176.5354863 16.80563164 177.92262172 14.41430664 179.30957031 C12.72859411 180.28863253 11.04493413 181.27122606 9.36132812 182.25390625 C8.33845703 182.846875 7.31558594 183.43984375 6.26171875 184.05078125 C5.36412842 184.57325439 4.46653809 185.09572754 3.54174805 185.6340332 C-1.42362552 188.30248629 -1.42362552 188.30248629 -4 189 C-6.3581543 188.17993164 -6.3581543 188.17993164 -8.82421875 186.66015625 C-10.22293213 185.81916382 -10.22293213 185.81916382 -11.64990234 184.96118164 C-12.65230957 184.3346167 -13.6547168 183.70805176 -14.6875 183.0625 C-16.86003599 181.74893909 -19.03323566 180.43647535 -21.20703125 179.125 C-22.32932129 178.44050781 -23.45161133 177.75601563 -24.60791016 177.05078125 C-29.98108988 173.8022776 -35.42789659 170.68488261 -40.875 167.5625 C-43.03280471 166.31944884 -45.19035462 165.07595529 -47.34765625 163.83203125 C-49.56510014 162.55468051 -51.78254817 161.27733696 -54 160 C-58.1963131 157.58216338 -62.39220284 155.16359338 -66.58770752 152.74435425 C-68.27098222 151.77393527 -69.95457887 150.80407481 -71.63818359 149.83422852 C-72.66121582 149.24440186 -73.68424805 148.6545752 -74.73828125 148.046875 C-75.63587158 147.52963867 -76.53346191 147.01240234 -77.45825195 146.47949219 C-78.29702881 145.99125977 -79.13580566 145.50302734 -80 145 C-80.86277054 144.66130386 -81.72554108 144.32260773 -82.61445618 143.97364807 C-85 142 -85 142 -85.47697544 140.2124958 C-85.68368368 137.77772594 -85.721135 135.38581702 -85.71044922 132.94213867 C-85.72563599 132.01499557 -85.74082275 131.08785248 -85.75646973 130.13261414 C-85.79894489 127.06069881 -85.80376678 123.99015965 -85.8046875 120.91796875 C-85.81821112 118.78428067 -85.8326378 116.65059813 -85.84793091 114.516922 C-85.87337941 110.04035485 -85.87861708 105.56427499 -85.87158203 101.08764648 C-85.86548785 95.35332633 -85.9233225 89.62164764 -85.99824333 83.88788891 C-86.04636277 79.47909764 -86.05329234 75.07094314 -86.0485878 70.66192055 C-86.05264005 68.54836676 -86.07114221 66.43478919 -86.10439682 64.32149315 C-86.33767841 47.80196069 -86.33767841 47.80196069 -83.10346985 43.44522095 C-80.76569845 41.85126868 -78.6739774 40.89515837 -76 40 C-75.0917749 39.45472656 -74.1835498 38.90945313 -73.24780273 38.34765625 C-72.10226929 37.71150391 -72.10226929 37.71150391 -70.93359375 37.0625 C-70.04873291 36.56758057 -69.16387207 36.07266113 -68.25219727 35.56274414 C-67.32334717 35.04703857 -66.39449707 34.53133301 -65.4375 34 C-57.27041961 29.42423999 -49.14415545 24.78753824 -41.0625 20.0625 C-40.08361816 19.49265381 -39.10473633 18.92280762 -38.09619141 18.33569336 C-32.81408194 15.25511047 -27.55890075 12.13578564 -22.328125 8.96875 C-21.23749756 8.31511475 -20.14687012 7.66147949 -19.02319336 6.98803711 C-16.92559624 5.73005304 -14.83488791 4.46049061 -12.75219727 3.17797852 C-11.80916748 2.61522217 -10.8661377 2.05246582 -9.89453125 1.47265625 C-9.06800049 0.97000244 -8.24146973 0.46734863 -7.38989258 -0.05053711 C-4.39067724 -1.24207337 -3.04591992 -0.99518984 0 0 Z M-9.40625 12.97265625 C-11.0917395 13.94017822 -11.0917395 13.94017822 -12.8112793 14.92724609 C-14.04091511 15.63888986 -15.27048707 16.35064396 -16.5 17.0625 C-17.76386992 17.79023914 -19.0279514 18.51761099 -20.29223633 19.24462891 C-22.90540542 20.74834205 -25.51704696 22.25465902 -28.12744141 23.76318359 C-31.76307407 25.864076 -35.40259227 27.958119 -39.04296875 30.05078125 C-48.73518755 35.62607587 -58.41674494 41.21962361 -68.0625 46.875 C-68.76528076 47.2860498 -69.46806152 47.69709961 -70.19213867 48.12060547 C-73.27264123 49.82008599 -73.27264123 49.82008599 -76 52 C-76.09509559 54.61688441 -76.12556 57.207289 -76.11352539 59.82446289 C-76.11367142 60.64390884 -76.11381744 61.4633548 -76.1139679 62.30763245 C-76.11326852 65.02933353 -76.10547501 67.75096705 -76.09765625 70.47265625 C-76.09579216 72.35452741 -76.09436821 74.23639906 -76.09336853 76.11827087 C-76.08954267 81.08148529 -76.07971181 86.04467064 -76.06866455 91.00787354 C-76.0584519 96.06839606 -76.05387122 101.12892327 -76.04882812 106.18945312 C-76.0380896 116.12631488 -76.02101236 126.06315503 -76 136 C-75.36577621 136.35747818 -74.73155243 136.71495636 -74.07810974 137.08326721 C-51.36486866 149.89020507 -51.36486866 149.89020507 -41.0625 155.9375 C-40.09650879 156.49961182 -39.13051758 157.06172363 -38.13525391 157.64086914 C-32.84706116 160.72216823 -27.59086684 163.84811242 -22.36328125 167.03125 C-21.27716553 167.68488525 -20.1910498 168.33852051 -19.07202148 169.01196289 C-16.98632273 170.26816038 -14.90853875 171.53762183 -12.84008789 172.82202148 C-11.90028076 173.38477783 -10.96047363 173.94753418 -9.9921875 174.52734375 C-9.17089355 175.02999756 -8.34959961 175.53265137 -7.50341797 176.05053711 C-4.22244591 177.29490032 -2.36122682 176.91906406 1 176 C3.51280661 174.87124816 3.51280661 174.87124816 5.921875 173.3671875 C6.85169189 172.81587158 7.78150879 172.26455566 8.73950195 171.6965332 C9.73296631 171.09542725 10.72643066 170.49432129 11.75 169.875 C13.90447318 168.59425315 16.05943843 167.31433376 18.21484375 166.03515625 C19.32972168 165.37016113 20.44459961 164.70516602 21.59326172 164.02001953 C27.13683655 160.73296649 32.72488144 157.52391904 38.3125 154.3125 C41.36758965 152.55340313 44.40343337 150.79880923 47.38916016 148.92358398 C50.16824214 147.28779903 52.84667628 146.433091 55.95068359 145.57836914 C61.92231096 143.61149606 66.54413082 141.43933013 70 136 C73.9795437 123.78157937 72.42702879 109.41136277 72.06237793 96.77178955 C71.97924126 92.82767874 72.01499285 88.88836482 72.05213928 84.94383717 C72.07587089 81.13276527 72.03475239 77.32454994 71.97323608 73.51398277 C71.94959186 71.69815923 71.94332079 69.88201852 71.95523071 68.06608009 C72.20267793 57.71428489 72.20267793 57.71428489 67.20735168 49.19555664 C64.00658639 47.01297337 60.55802 45.52115056 57 44 C54.77941109 42.79265889 52.62201732 41.50453162 50.44921875 40.2109375 C48.19638768 38.93039827 45.94244982 37.65180455 43.6875 36.375 C41.23863738 34.98343003 38.79100258 33.5897117 36.34375 32.1953125 C35.426222 31.67269836 35.426222 31.67269836 34.49015808 31.13952637 C26.2730745 26.4530951 18.11251969 21.66994751 9.94921875 16.890625 C9.09763184 16.39369141 8.24604492 15.89675781 7.36865234 15.38476562 C5.86074056 14.50320764 4.35553725 13.61698824 2.85400391 12.72460938 C-2.70687642 9.45535566 -3.89039831 9.79266257 -9.40625 12.97265625 Z " fill="#FAFAFA" transform="translate(1001,822)"/>
<path d="M0 0 C27.72 0 55.44 0 84 0 C84 7.59 84 15.18 84 23 C74.43 23 64.86 23 55 23 C55 54.35 55 85.7 55 118 C46.75 118 38.5 118 30 118 C29.93229018 106.18689271 29.87722202 94.37391378 29.84456348 82.56065655 C29.82889101 77.07560214 29.80762382 71.59068709 29.77368164 66.10571289 C29.7411447 60.8148594 29.72315891 55.52414015 29.71536827 50.23319435 C29.70981457 48.21211444 29.69896989 46.19104208 29.68280983 44.17001915 C29.6611109 41.34454704 29.65802992 38.51963348 29.65942383 35.6940918 C29.648638 34.85396042 29.63785217 34.01382904 29.6267395 33.14823914 C29.65784352 27.34215648 29.65784352 27.34215648 33 24 C22.11 23.67 11.22 23.34 0 23 C0 15.41 0 7.82 0 0 Z " fill="#000000" transform="translate(741,494)"/>
<path d="M0 0 C143.55 0 287.1 0 435 0 C435 0.99 435 1.98 435 3 C291.45 3 147.9 3 0 3 C0 2.01 0 1.02 0 0 Z " fill="#090909" transform="translate(788,675)"/>
<path d="M0 0 C143.55 0 287.1 0 435 0 C435 0.99 435 1.98 435 3 C291.45 3 147.9 3 0 3 C0 2.01 0 1.02 0 0 Z " fill="#1A1A1A" transform="translate(783,443)"/>
<path d="M0 0 C0.66 0 1.32 0 2 0 C2.37753418 1.38952881 2.37753418 1.38952881 2.76269531 2.80712891 C3.71604999 6.31502642 4.670607 9.82259589 5.62548828 13.33007812 C6.03498505 14.83487469 6.44417553 16.33975464 6.85302734 17.84472656 C7.44804361 20.03473728 8.044277 22.22441409 8.640625 24.4140625 C8.83660278 25.13660217 9.03258057 25.85914185 9.23449707 26.60357666 C10.18221664 30.08073179 11.15325882 33.54711282 12.18945312 36.99902344 C12.55490234 38.22395508 12.92035156 39.44888672 13.296875 40.7109375 C13.62526367 41.7839209 13.95365234 42.8569043 14.29199219 43.96240234 C15 47 15 47 15 53 C5.76 53 -3.48 53 -13 53 C-11.76637993 47.44870969 -10.51497394 41.94570252 -9.125 36.4375 C-8.77470599 35.04558137 -8.42444659 33.65365403 -8.07421875 32.26171875 C-7.89681152 31.55837402 -7.7194043 30.8550293 -7.53662109 30.13037109 C-6.66535537 26.67146994 -5.80172863 23.21066477 -4.9375 19.75 C-4.60811087 18.43228218 -4.27868448 17.11457367 -3.94921875 15.796875 C-3.63597656 14.54390625 -3.32273437 13.2909375 -3 12 C-2 8 -1 4 0 0 Z " fill="#F9F9F9" transform="translate(885,511)"/>
<path d="M0 0 C3.01125 -0.061875 6.0225 -0.12375 9.125 -0.1875 C10.06230957 -0.21481201 10.99961914 -0.24212402 11.96533203 -0.27026367 C18.01790701 -0.3302093 22.29343756 0.4250463 26.84765625 4.7578125 C29.3771511 9.67960926 28.55409965 15.63955284 28 21 C26.79266324 24.7447903 24.76031173 26.51553307 21.4375 28.6328125 C17.01290048 30.3925964 13.32473017 30.33252171 8.625 30.1875 C4.355625 30.0946875 4.355625 30.0946875 0 30 C0 20.1 0 10.2 0 0 Z " fill="#FBFBFB" transform="translate(980,517)"/>
</svg>
